<svg width="2052" height="2401" xmlns="http://www.w3.org/2000/svg" xmlns:xlink="http://www.w3.org/1999/xlink" xml:space="preserve" overflow="hidden"><defs><clipPath id="clip0"><rect x="1131" y="37" width="2052" height="2401"/></clipPath></defs><g clip-path="url(#clip0)" transform="translate(-1131 -37)"><path d="M3172.3 43.796C3177.69 383.601 3177.37 723.459 3172.3 1063.25 3167.42 1390.64 3151.13 1646.12 3004.74 1845.88 2828.4 2086.52 2534.62 2260.18 2156.72 2430.8 1778.82 2260.18 1485.04 2086.52 1308.71 1845.88 1162.32 1646.12 1146.02 1390.64 1141.14 1063.25 1136.08 723.459 1135.76 383.606 1141.14 43.796L3172.3 43.796Z" stroke="#808080" stroke-width="12.0433" stroke-miterlimit="8" fill="#FFFFFF" fill-rule="evenodd"/><path d="M1867.53 44.4998 2447.03 44.4998 2447.03 871.253 3174.5 871.253 3173.02 1063.53C3171.19 1186.25 3167.76 1298.86 3156.46 1402.22L3149.61 1450.75 2447.03 1450.75 2447.03 2288.58 2424.61 2301.02C2341.18 2345.04 2251.96 2387.86 2157.5 2430.5 2063.03 2387.86 1973.82 2345.04 1890.38 2301.02L1867.53 2288.33 1867.53 1450.75 1165.39 1450.75 1158.54 1402.21C1147.24 1298.86 1143.81 1186.25 1141.98 1063.53L1140.5 871.253 1867.53 871.253Z" stroke="#920000" stroke-width="6.875" stroke-miterlimit="8" fill="#CD0707" fill-rule="evenodd"/><path d="M2110.68 855.322C2110.68 855.322 2109.64 847.927 2107.16 845.603 2102.65 841.378 2089.53 840.741 2089.53 840.741 2089.53 840.741 2090.01 834.533 2088.36 832.234 2084.49 826.847 2077.14 822.708 2070.73 823.728 2064.43 824.732 2059.46 831.185 2056.63 837.097 2054.71 841.103 2055.46 850.461 2055.46 850.461L2048.41 863.829 2031.96 860.185 2031.96 851.678C2031.96 851.678 2026.18 842.142 2021.39 840.741 2013.25 838.36 2006.65 839.956 2001.41 846.816 1998.26 850.95 1996.71 862.616 1996.71 862.616 1996.71 862.616 1984.53 864.038 1981.44 868.691 1976.34 876.367 1981.44 896.637 1981.44 896.637L1968.51 896.637C1968.51 896.637 1967.91 890.459 1966.16 888.131 1962.83 883.686 1957.51 879.685 1952.06 879.624 1948.03 879.578 1943.54 882.106 1941.49 885.699 1938.51 890.939 1941.49 903.93 1941.49 903.93L1928.57 918.513 1928.57 934.307C1928.57 934.307 1921.21 935.79 1917.99 934.307 1913.18 932.09 1912.16 924.527 1907.42 922.156 1901.76 919.333 1894.21 917.998 1888.62 920.943 1884.07 923.339 1881.21 929.093 1880.4 934.307 1879.1 942.548 1886.27 958.613 1886.27 958.613L1880.4 970.764C1880.4 970.764 1873.76 965.081 1869.82 963.471 1865.39 961.661 1859.47 958.002 1855.72 961.04 1851.7 964.296 1853.07 971.784 1854.55 976.84 1855.83 981.264 1862.77 987.777 1862.77 987.777L1862.77 1002.36C1862.77 1002.36 1852.03 1001.15 1847.5 1003.57 1842.06 1006.47 1835.97 1011.83 1835.75 1018.15 1835.62 1021.64 1838.8 1024.75 1841.62 1026.66 1847.99 1030.96 1863.95 1031.52 1863.95 1031.52 1863.95 1031.52 1853.45 1044.26 1856.9 1049.75 1862.45 1058.59 1887.44 1050.96 1887.44 1050.96 1887.44 1050.96 1875.82 1063.48 1879.22 1069.19 1885.79 1080.24 1916.82 1070.41 1916.82 1070.41 1916.82 1070.41 1903.52 1080.45 1906.24 1086.21 1911.12 1096.49 1939.41 1088.02 1939.41 1088.02 1939.41 1088.02 1985.16 1122.82 1995.67 1148.62 2007.54 1177.76 2009.97 1215 2004.93 1247.79 1995.11 1311.62 1929.91 1425.46 1929.91 1425.46 1933.31 1433.71 1940.71 1434.14 1952.78 1425.46 1952.78 1425.46 1950.59 1442.24 1957.15 1445.79 1964.79 1449.92 1976.44 1434.64 1976.44 1434.64 1976.44 1434.64 1975.42 1452.32 1981.67 1455.27 1986.92 1457.74 2000.11 1448.4 2000.11 1448.4 2000.11 1448.4 2001.94 1462.3 2007.24 1464.48 2012.76 1466.75 2023.77 1457.58 2023.77 1457.58 2023.77 1457.58 2030.85 1470.55 2037.08 1471.34 2042.78 1472.07 2051.86 1462.17 2051.86 1462.17 2051.86 1462.17 2060.25 1478.09 2067.84 1479.4 2074.5 1480.55 2085.88 1469.81 2085.88 1469.81 2085.88 1469.81 2093.26 1481.75 2099.19 1482.05 2105.89 1482.39 2115.46 1469.81 2115.46 1469.81 2115.46 1469.81 2123.62 1485.58 2130.67 1485.11 2137.57 1484.65 2142.74 1474.1 2142.74 1474.1 2142.74 1474.1 2147.92 1484.65 2154.82 1485.11 2161.87 1485.58 2170.03 1469.81 2170.03 1469.81 2170.03 1469.81 2179.6 1482.39 2186.3 1482.05 2192.23 1481.75 2199.61 1469.81 2199.61 1469.81 2199.61 1469.81 2210.98 1480.55 2217.65 1479.4 2225.24 1478.09 2233.62 1462.17 2233.62 1462.17 2233.62 1462.17 2242.71 1472.07 2248.41 1471.34 2254.64 1470.55 2261.72 1457.58 2261.72 1457.58 2261.72 1457.58 2272.73 1466.75 2278.25 1464.48 2283.55 1462.3 2285.38 1448.4 2285.38 1448.4 2285.38 1448.4 2298.57 1457.74 2303.82 1455.27 2310.07 1452.32 2309.05 1434.64 2309.05 1434.64 2309.05 1434.64 2320.7 1449.92 2328.34 1445.79 2334.9 1442.24 2332.71 1425.46 2332.71 1425.46 2344.77 1434.14 2352.18 1433.71 2355.58 1425.46 2355.58 1425.46 2290.38 1311.62 2280.56 1247.79 2275.52 1215 2277.95 1177.76 2289.82 1148.62 2300.33 1122.82 2346.08 1088.02 2346.08 1088.02 2346.08 1088.02 2374.37 1096.49 2379.25 1086.21 2381.97 1080.45 2368.67 1070.41 2368.67 1070.41 2368.67 1070.41 2399.7 1080.24 2406.27 1069.19 2409.67 1063.48 2398.05 1050.96 2398.05 1050.96 2398.05 1050.96 2423.04 1058.59 2428.59 1049.75 2432.04 1044.26 2421.54 1031.52 2421.54 1031.52 2421.54 1031.52 2437.5 1030.96 2443.87 1026.66 2446.69 1024.75 2449.86 1021.64 2449.74 1018.15 2449.51 1011.83 2443.43 1006.47 2437.99 1003.57 2433.45 1001.15 2422.72 1002.36 2422.72 1002.36L2422.72 987.777C2422.72 987.777 2429.65 981.264 2430.94 976.84 2432.41 971.784 2433.79 964.296 2429.77 961.04 2426.02 958.002 2420.1 961.661 2415.67 963.471 2411.73 965.081 2405.09 970.764 2405.09 970.764L2399.22 958.613C2399.22 958.613 2406.39 942.548 2405.09 934.307 2404.28 929.093 2401.42 923.339 2396.87 920.943 2391.28 917.998 2383.73 919.333 2378.07 922.156 2373.33 924.527 2372.31 932.09 2367.5 934.307 2364.27 935.79 2356.92 934.307 2356.92 934.307L2356.92 918.513 2344 903.93C2344 903.93 2346.98 890.939 2344 885.699 2341.95 882.106 2337.46 879.583 2333.43 879.624 2327.99 879.685 2322.66 883.686 2319.33 888.131 2317.58 890.459 2316.98 896.637 2316.98 896.637L2304.05 896.637C2304.05 896.637 2309.15 876.367 2304.05 868.691 2300.96 864.038 2288.78 862.616 2288.78 862.616 2288.78 862.616 2287.23 850.95 2284.08 846.816 2278.84 839.956 2272.24 838.36 2264.1 840.741 2259.31 842.142 2253.53 851.678 2253.53 851.678L2253.53 860.185 2237.08 863.829 2230.03 850.461C2230.03 850.461 2230.78 841.103 2228.85 837.097 2226.02 831.185 2221.06 824.732 2214.75 823.728 2208.35 822.708 2201 826.847 2197.13 832.234 2195.48 834.533 2195.96 840.741 2195.96 840.741 2195.96 840.741 2182.84 841.378 2178.33 845.603 2175.85 847.927 2174.81 855.322 2174.81 855.322 2173.63 845.532 2171.7 833.697 2168.5 832.163L2155.17 825.802C2155.17 825.802 2152.39 811.328 2146.96 807.769 2142.34 804.737 2134.42 803.769 2130.55 807.769 2125.96 812.52 2127.48 821.557 2127.48 821.557 2127.48 821.557 2120.91 825.894 2116.19 830.042 2108.95 836.428 2110.68 855.322 2110.68 855.322Z" stroke="#806600" stroke-width="3.6977" stroke-miterlimit="8" fill="#D1BA4A" fill-rule="evenodd"/><path d="M1951.93 962.853C1946.21 960.154 1938.28 959.216 1933.08 962.853 1928.41 966.118 1926.83 973.256 1926.79 979.082 1926.74 986.618 1934.65 1000.18 1934.65 1000.18 1934.65 1000.18 1916.61 999.878 1915.8 1006.67 1914.13 1020.67 1950.36 1029.39 1950.36 1029.39 1950.36 1029.39 1932.09 1030.5 1931.51 1037.5 1930.33 1051.56 1966.06 1060.23 1966.06 1060.23 1966.06 1060.23 1942.64 1051.68 1939.36 1060.23 1935.66 1069.85 1944.53 1084.02 1957.58 1081.08L1981.12 1082.71 1997.05 1104.53C1997.05 1104.53 1983.81 1089.92 1974.76 1090.11 1972.56 1090.16 1969.3 1093.94 1969.3 1093.94 1954.25 1104.51 1993.8 1116.95 2001.55 1135.97 2015.22 1169.51 2017.43 1214.81 2011.91 1250.7 2006.28 1287.22 1986.88 1331.72 1969.01 1368.84 1958.33 1391 1955 1396.45 1948.48 1408.38L1955.82 1411C1955.82 1411 1980.73 1366.48 1991.12 1343.15 2000.31 1322.5 2014.92 1279.55 2014.92 1279.55 2014.92 1279.55 2003.6 1328 1996.04 1351.63 1989.23 1372.97 1972.24 1414.39 1972.24 1414.39L1972.24 1424.56 1980.45 1419.48C1980.45 1419.48 1992.79 1391.91 1998.51 1377.92 2003.42 1365.88 2008.37 1353.83 2012.46 1341.46 2018.82 1322.24 2037.28 1256.08 2037.28 1256.08 2037.28 1256.08 2022.21 1328.37 2017.38 1350.79 2012.16 1375.09 1998.51 1422.87 1998.51 1422.87L1998.51 1438.98 2005.89 1426.26C2005.89 1426.26 2016.3 1404.64 2019.85 1393.19 2029.13 1363.19 2047.52 1276.66 2047.52 1276.66 2047.52 1276.66 2032.1 1366.48 2027.24 1399.13 2025.2 1412.77 2019.85 1439.83 2019.85 1439.83L2023.13 1450.01 2033.8 1443.22 2054.69 1323.47 2044.47 1443.22 2051.86 1450.86 2062.53 1438.14 2075.86 1261 2076.48 1446.61 2083.87 1460.19 2088.79 1444.07 2092.9 1327.89 2101.11 1449.16 2111.77 1455.94 2118.34 1443.22 2119.99 1276.82 2131.48 1455.09 2140.5 1463.57 2144.61 1459.33 2144.93 1319.25 2160.21 1449.16 2178.26 1466.12 2179.08 1448.31 2171.7 1427.11 2162.45 1279.57 2191.39 1445.77 2207.81 1457.64 2208.63 1447.46 2195.5 1352.48 2221.76 1444.92 2238.18 1454.25 2243.93 1444.92 2216.84 1335.52 2250.49 1435.59 2265.27 1442.38 2265.27 1431.35 2222.58 1285.49 2276.76 1420.32 2284.15 1421.17 2292.35 1418.63 2294 1405.06 2248.7 1255.24 2310.41 1412.69 2321.9 1417.78 2321.9 1406.75 2280.04 1311.45 2336.12 1408.38C2329.6 1396.45 2326.27 1391 2315.6 1368.84 2297.72 1331.72 2278.32 1287.22 2272.69 1250.69 2267.17 1214.81 2264.2 1178.76 2277.87 1145.21 2285.63 1126.17 2298.7 1108.35 2312.24 1095.74 2312.24 1095.74 2332.8 1092.74 2337.63 1083.81 2341.15 1077.31 2333.62 1061.85 2333.62 1061.85 2333.62 1061.85 2349.19 1084.61 2358.24 1080.02 2366.14 1076.02 2359.26 1052.79 2359.26 1052.79 2359.26 1052.79 2378.89 1067.84 2386.98 1062.25 2393.19 1057.95 2388.6 1039.13 2388.6 1039.13 2388.6 1039.13 2406.79 1038.02 2407.45 1031.02 2407.63 1029.07 2402.92 1029.71 2402.74 1027.77 2402.15 1021.68 2414.07 1020.77 2415.3 1014.79 2416.81 1007.41 2414.52 995.531 2407.45 993.689 2402.77 992.465 2401.21 1002.56 2396.45 1003.42 2392.04 1004.23 2383.89 998.557 2383.89 998.557 2383.89 998.557 2372.53 1004.46 2367.75 1011.84 2366.66 1013.51 2367.16 1018.4 2365.8 1021.49 2363.37 1027 2359.18 1031.02 2359.18 1031.02 2359.18 1031.02 2361.25 1022.04 2358.23 1020.21 2355.54 1018.58 2351.8 1021.78 2349.67 1024.14 2345.53 1028.73 2343.49 1041.83 2343.49 1041.83 2343.49 1041.83 2344.38 1034.98 2342.06 1033.48 2340.1 1032.21 2337.23 1033.99 2335.4 1035.44 2329.54 1040.09 2323.98 1055.1 2323.98 1055.1L2316.85 1055.1 2330.65 1035.93C2330.65 1035.93 2340.21 1030.14 2342.54 1024.63 2344.06 1021.03 2343.01 1016.77 2343.01 1016.77 2343.01 1016.77 2352.24 1019.15 2355.85 1016.77 2358.07 1015.31 2359.69 1012.06 2359.18 1009.4 2358.64 1006.56 2353 1003.5 2353 1003.5L2360.32 1001.8C2360.32 1001.8 2370.01 1004.94 2372.89 1001.8 2379.37 994.715 2376.19 980.939 2371.32 972.587 2368.16 967.19 2361.31 960.572 2355.61 962.853 2350.51 964.889 2356 977.042 2350.9 979.082 2345.2 981.358 2341.25 968.572 2335.19 969.342 2331.52 969.812 2327.34 977.46 2327.34 977.46L2333.59 1000.5C2333.59 1000.5 2326.56 995.638 2323.18 997.052 2318.79 998.888 2316.5 1009.98 2316.5 1009.98L2314.93 1038.19 2302.82 1053.68 2308.01 1010.09 2313.8 998.445 2314.77 982.327 2310.19 975.149 2301.2 981.843 2305.15 969.634 2302.2 964.476C2302.2 964.476 2310.9 964.374 2313.2 961.231 2316.36 956.909 2316.9 948.822 2313.2 945.002 2310.27 941.971 2303.93 934.287 2299.06 936.384 2295.31 937.991 2292.44 948.593 2292.64 951.879 2293.19 961.032 2286.81 947.547 2284.11 949.823 2281.57 951.975 2279.35 954.598 2279.2 957.333 2279.06 959.756 2275.93 965.22 2277.61 967.578 2279.67 970.465 2286.56 970.169 2285.63 972.128 2281.46 980.868 2271.3 979.96 2271.3 979.96 2271.3 979.96 2264.08 988.204 2264.45 993.195 2264.91 999.439 2275.36 1008.23 2275.36 1008.23 2275.36 1008.23 2262.6 1004.8 2259.22 1009.14 2254.66 1015.01 2262.77 1031.44 2262.77 1031.44 2262.77 1031.44 2253.8 1027.45 2250.28 1029.81 2246.87 1032.09 2246.73 1041.87 2246.73 1041.87L2248.32 1056.55 2239.42 1093.22 2233.24 1052.18 2243.1 1022.98 2255.68 1000.28C2255.68 1000.28 2274.99 969.756 2264.51 962.853 2256.03 957.266 2240.95 982.327 2240.95 982.327 2240.95 982.327 2246.67 969.669 2247.23 962.853 2247.81 955.761 2249.31 946.389 2244.09 941.751 2239.72 937.879 2231.11 937.798 2226.81 941.751 2220.11 947.91 2223.67 969.342 2223.67 969.342L2219.82 988.241C2219.82 988.241 2212.21 985.118 2209.13 987.011 2202.99 990.776 2201.02 1007.5 2201.02 1007.5L2202.09 986.965 2210.7 979.899 2214.24 969.342 2206.35 962.914 2193.82 969.342 2214.24 946.623C2214.24 946.623 2221.41 928.823 2215.81 923.9 2208.85 917.778 2196.28 924.533 2189.11 930.395 2184.52 934.145 2181.26 946.623 2181.26 946.623 2181.26 946.623 2173.64 930.588 2167.12 932.017 2159.99 933.578 2159.27 953.113 2159.27 953.113L2158.51 964.496 2174.09 982.22C2174.09 982.22 2162.18 970.725 2156.93 974.276 2153.08 976.889 2156.18 983.899 2157.09 988.572 2158.54 996.077 2165.41 1009.87 2165.41 1009.87L2157.01 1050.61 2157.45 1011.75 2152.92 996.261 2141.7 995.684C2141.7 995.684 2148.86 987.322 2149.63 981.327 2150.11 977.623 2148.27 970.965 2148.27 970.965 2148.27 970.965 2153.04 956.42 2154.04 948.246 2154.91 941.185 2156.13 931.782 2150.9 927.15 2146.93 923.624 2138.84 927.15 2138.84 927.15 2138.84 927.15 2135.42 916.436 2130.99 914.165 2125.81 911.507 2116.98 910.86 2113.71 915.787 2109.4 922.282 2120 938.506 2120 938.506 2120 938.506 2106.12 929.124 2099.58 932.017 2095.27 933.92 2093.7 940.18 2093.3 945.002 2091.41 967.506 2112.14 1009.92 2112.14 1009.92L2085.44 1018.03 2094.87 982.327C2094.87 982.327 2095.71 962.859 2088.74 960.531 2081.1 957.97 2069.73 975.832 2069.73 975.832 2069.73 975.832 2069.73 954.195 2069.73 943.379 2069.73 939.588 2072.32 934.696 2069.73 932.017 2064.92 927.043 2049.31 932.017 2049.31 932.017L2044.6 961.231C2044.6 961.231 2042.75 935.507 2033.61 935.262 2026.58 935.078 2024.26 947.481 2024.18 954.736 2023.95 975.062 2049.31 1009.92 2049.31 1009.92 2049.31 1009.92 2040.67 1004.81 2036.75 1006.67 2033.56 1008.19 2032.07 1012.78 2032.04 1016.41 2032.01 1019.6 2033.63 1023.04 2036.02 1025.07 2040.18 1028.6 2047.24 1036.99 2047.24 1036.99 2047.24 1036.99 2039.35 1033.13 2036.21 1037.65 2033.91 1040.94 2034.15 1042.97 2036.6 1046.15 2041.51 1052.53 2052.68 1048.26 2059.47 1052.41 2069.01 1058.24 2082.41 1077.31 2082.41 1077.31L2085.32 1119.72C2085.32 1119.72 2080.1 1087.22 2071.4 1074.02 2067.48 1068.08 2055.64 1070.64 2047.4 1066.8 2045.57 1065.94 2048.37 1062.13 2047.45 1059.18 2046.74 1056.91 2042.31 1055.31 2041.17 1054.94 2033.57 1052.52 2025 1057.15 2025 1057.15L2021.7 1057.23 2011.36 1074.49 2027.28 1129.57 2024.09 1122.99 2004.99 1072.85 2013.19 1050.49C2013.19 1050.49 2015.57 1037.19 2012.63 1031.7 2011.37 1029.36 2003.71 1037.07 2003.36 1033.7 2002.63 1026.48 2011 1013.21 2006.9 1009.92 2002.34 1006.25 1989.62 1011.54 1989.62 1011.54 1989.62 1011.54 1998.06 979.44 1989.62 967.721 1986.36 963.19 1978.41 959.634 1973.91 962.853 1967.45 967.486 1972.34 987.195 1972.34 987.195L1974.03 996.644C1974.03 996.644 1963.49 991.996 1959.72 995.061 1956.61 997.587 1956.95 1003.33 1958.19 1007.21 1959.88 1012.53 1964.54 1016.94 1969.43 1019.36 1971.28 1020.27 1973.84 1018.74 1975.56 1019.88 1980.51 1023.15 1984.27 1029.66 1984.26 1035.73 1984.24 1039.98 1978.34 1042.57 1978.12 1046.82 1977.64 1056.03 1988.86 1072.17 1988.86 1072.17L1992.43 1079.57C1992.43 1079.57 1972.7 1059.09 1971.48 1045.76 1971.21 1042.93 1974.28 1040.67 1974.54 1037.84 1974.89 1034.1 1974.47 1029.91 1972.5 1026.75 1970.58 1023.67 1963.81 1020.41 1963.81 1020.41 1963.81 1020.41 1955.36 1010.64 1953.59 1004.57 1952.5 1000.86 1951.51 996.174 1953.59 992.95 1955.53 989.924 1961.35 991.745 1963.3 988.725 1965.75 984.909 1965.98 978.629 1963.3 974.99 1962.12 973.394 1959.2 974.639 1957.67 973.404 1954.59 970.925 1951.93 962.853 1951.93 962.853Z" fill="#F3DE77" fill-rule="evenodd"/><path d="M2039.93 1214.87 2030.93 1159.54C2030.93 1159.54 2005.42 1142.75 2005.94 1128.33 2006.01 1126.53 2011.95 1126.93 2011.56 1122.6 2011.21 1118.81 2006.89 1115.08 2005.6 1110.58 2003.77 1104.23 2005.12 1097.56 2007.31 1097.37 2011.17 1097.02 2015.44 1096.44 2015.44 1096.44 2015.44 1096.44 2014.6 1099.52 2012.27 1089.94 2010.01 1080.64 2006.19 1072.79 2014.58 1068.39 2022.35 1064.31 2033.52 1074.88 2035.55 1080.88 2037.95 1087.98 2042.53 1085.32 2042.53 1085.32 2042.53 1085.32 2036.12 1070.32 2046.65 1064.65 2053.5 1060.96 2062.37 1070.41 2066.39 1077.13 2071.94 1086.41 2068.86 1109.6 2068.86 1109.6 2068.86 1109.6 2077.03 1094.98 2083.66 1095.86 2094.29 1097.28 2100.25 1112.48 2100.13 1123.33 2100.11 1125.5 2092.7 1133.87 2089.99 1143.67 2085.22 1160.98 2102.38 1183.36 2102.38 1183.36 2102.38 1183.36 2089.75 1192.82 2106.74 1194.66 2108.55 1169.03 2106.49 1149.88 2105.02 1136.72 2103.02 1118.73 2100.64 1110.42 2097.02 1097.8 2096.06 1094.47 2108.68 1090.98 2107.1 1087.12 2103.09 1077.33 2089.18 1074.31 2084.9 1064.65 2082.02 1058.18 2078.53 1048.24 2083.66 1043.42 2088.22 1039.13 2102.17 1045.92 2102.17 1045.92 2102.17 1045.92 2095.28 1028.65 2096 1019.69 2096.86 1008.9 2098.31 993.498 2108.34 989.724 2115.23 987.124 2124.2 993.381 2128.07 999.714 2132.61 1007.15 2120.68 1028.2 2129.32 1018.21 2137.95 1008.22 2134 1006.81 2141.64 1007.21 2149.74 1007.62 2155.45 1020.36 2153.98 1028.43 2153.02 1033.67 2143.92 1033.62 2141.64 1038.42 2138.08 1045.93 2141.64 1063.39 2141.64 1063.39 2141.64 1063.39 2154.41 1047.45 2161.38 1050.91 2168.8 1054.59 2163.85 1075.88 2163.85 1075.88L2149.05 1090.87C2149.05 1090.87 2162.07 1091.59 2164.3 1096.71 2166.77 1102.34 2161.13 1108.85 2157.85 1114.02 2153.5 1120.9 2148.39 1127.76 2148.39 1127.76L2159.33 1139.75 2155.48 1151.01 2140.05 1159.97 2142.13 1229.82 2169.12 1127.08 2167.37 1097.54 2169.25 1074.36C2169.25 1074.36 2179.85 1073.8 2179.35 1070.99 2177.88 1062.72 2171.26 1051.81 2173.72 1042.17 2176.39 1031.66 2180.26 1014.72 2190.99 1014.7 2197.83 1014.68 2202.09 1032.18 2202.09 1032.18 2202.09 1032.18 2202.38 1009.52 2209.12 1002.21 2214.2 996.701 2219.2 995.735 2225.53 999.714 2233.71 1004.85 2236.93 1017.56 2235.39 1027.18 2233.39 1039.76 2211.96 1057.15 2211.96 1057.15 2211.96 1057.15 2220.9 1052.64 2225.26 1057.15 2232.09 1064.22 2228.84 1077.84 2225.26 1087.12 2221.52 1096.84 2209.57 1109.88 2209.57 1109.88 2209.57 1109.88 2224.25 1109.2 2226.73 1114.78 2228.92 1119.69 2223.64 1125.49 2220.09 1129.47 2216.3 1133.73 2205.52 1138.08 2205.52 1138.08L2213.2 1198.3 2211.08 1193.92 2231.85 1108.72 2237.34 1083.38C2243.75 1053.8 2240.45 1062.66 2249.28 1077.56 2249.28 1077.56 2256.41 1047.45 2269.94 1035.93 2276.92 1029.98 2289.69 1026.75 2297.08 1032.18 2300.8 1034.91 2300.44 1041.35 2299.54 1045.92 2298.22 1052.71 2288.44 1063.39 2288.44 1063.39 2288.44 1063.39 2305.93 1058.3 2311.88 1064.65 2317.83 1070.99 2313.51 1077.38 2308.02 1084.24 2302.52 1091.1 2288.44 1098.36 2288.44 1098.36 2288.44 1098.36 2288.92 1109.07 2286.33 1113.35 2280.98 1122.17 2261.3 1138.6 2261.3 1138.6L2245.63 1238.16C2245.63 1238.16 2057.76 1259.44 2057.76 1249.45 2057.76 1239.46 2039.93 1214.87 2039.93 1214.87Z" fill="#D1BA4A" fill-rule="evenodd"/><path d="M2044.63 1093.79C2044.63 1093.79 2046.83 1087.19 2047.93 1078.9 2049.04 1070.62 2048.46 1073.35 2050.94 1072.66 2053.42 1071.98 2053.28 1068.98 2058.16 1077.66 2063.05 1086.34 2064.79 1125.7 2064.79 1125.7 2064.79 1125.7 2073.88 1106.71 2082.25 1106.98 2089.36 1107.21 2091.09 1113.97 2090.67 1121.33 2090.23 1129.27 2079.23 1140.05 2079.23 1140.05 2079.23 1140.05 2086.24 1145.57 2084.92 1152.09 2083.31 1160.04 2070.47 1167.03 2070.47 1167.03L2081.98 1195.81 2120.35 1185.83 2115.04 1122.64C2115.04 1122.64 2101.62 1106.75 2104.44 1098.37 2105.25 1095.98 2108.53 1094.78 2110.97 1094.92 2113.74 1095.07 2117.92 1099.64 2117.92 1099.64L2117.76 1089.51C2117.76 1089.51 2096.96 1072.34 2091.88 1060.19 2090.84 1057.7 2089.36 1053.92 2091.28 1052.07 2096.32 1047.2 2111.74 1055.19 2111.74 1055.19 2111.74 1055.19 2100.2 1029.39 2101.51 1015.89 2102.18 1008.95 2103.87 998.095 2110.54 997.165 2115.61 996.461 2118.95 1004.07 2120.77 1009.02 2125.14 1020.87 2120.77 1047.08 2120.77 1047.08 2120.77 1047.08 2127.83 1022.4 2137.63 1016.51 2139.02 1015.68 2141.31 1015.33 2142.44 1016.51 2144.43 1018.57 2143.03 1022.4 2142.44 1025.25 2141.11 1031.71 2134.62 1043.34 2134.62 1043.34L2137.63 1082.65C2137.63 1082.65 2142 1063.46 2149.66 1061.43 2151.94 1060.84 2155.08 1062.83 2155.68 1065.18 2156.75 1069.31 2151.72 1072.69 2149.66 1076.41 2146.53 1082.07 2140.03 1093.26 2140.03 1093.26L2158.87 1097.74 2135.56 1127.34C2135.56 1127.34 2152.82 1134.44 2152.17 1141.94 2151.53 1149.34 2133.55 1153.11 2133.55 1153.11L2131.88 1198.85 2162.85 1203.63 2175.27 1126.94 2172.69 1098.47C2172.69 1098.47 2167.3 1082.83 2172.12 1078.36 2173.82 1076.77 2177.06 1077.96 2178.93 1079.34 2181.66 1081.35 2183.51 1088.61 2183.51 1088.61L2188.19 1077.66C2188.19 1077.66 2177.06 1059.98 2178.51 1047.44 2178.79 1044.99 2191.5 1052.89 2192.5 1050.29 2193.23 1048.41 2186.24 1042.47 2184.1 1036.92 2181.97 1031.38 2184.69 1026.22 2186.39 1025.87 2191.03 1024.9 2206.86 1044.59 2206.86 1044.59 2206.86 1044.59 2205.45 1013.08 2213.48 1007.77 2216.86 1005.53 2218.65 1005.34 2221.91 1007.77 2225.51 1010.47 2226.24 1016.27 2226.12 1020.87 2225.7 1036.74 2200.84 1065.8 2200.84 1065.8 2200.84 1065.8 2215.49 1060.55 2220.1 1065.18 2224.57 1069.67 2222.81 1078.72 2220.1 1084.52 2216.42 1092.38 2200.23 1100.74 2200.23 1100.74 2200.23 1100.74 2198.53 1109.23 2202.97 1113.49 2207.13 1117.48 2217.46 1117.09 2217.33 1121.48 2217.05 1130.65 2198.85 1131.69 2198.85 1131.69L2189.8 1199.42 2216.08 1202.7 2235.15 1127.57C2235.15 1127.57 2237.17 1109.37 2239.96 1100.74 2241.53 1095.89 2241.7 1087.72 2246.58 1087.02 2249.54 1086.59 2252.6 1093.88 2252.6 1093.88 2252.6 1093.88 2256 1066.14 2262.84 1054.57 2265.81 1049.55 2270.75 1045.97 2275.48 1042.71 2278.25 1040.81 2281.22 1037.85 2284.51 1038.35 2286.9 1038.71 2289.38 1040.9 2289.93 1043.34 2291.92 1052.33 2279.69 1068.92 2279.69 1068.92L2294.74 1068.92 2294.74 1078.28 2272.47 1100.12C2272.47 1100.12 2281.92 1096.3 2283.31 1098.87 2284.7 1101.44 2281.77 1106.13 2277.85 1110.76 2272.26 1117.36 2264.64 1123.83 2264.64 1123.83L2253.81 1131.31 2220.7 1225.53C2220.7 1225.53 2165.32 1246.75 2138.23 1238.01 2111.14 1229.27 2064.79 1215.55 2064.79 1215.55L2064.79 1215.55 2042.51 1152.53C2042.51 1152.53 2013.5 1141.31 2015.86 1131.99 2016.78 1128.37 2033.49 1130.69 2033.49 1130.69 2033.49 1130.69 2019.59 1124.35 2015.81 1118.05 2013.03 1113.44 2009.59 1105.55 2013.5 1101.92 2016.31 1099.31 2024.45 1104.91 2024.45 1104.91 2024.45 1104.91 2017.3 1095.15 2015.81 1089.37 2014.71 1085.14 2012.82 1079.32 2015.81 1076.23 2017.98 1073.97 2025.03 1076.23 2025.03 1076.23Z" fill="#F3DE77" fill-rule="evenodd"/><path d="M1927.99 1049.28C1927.99 1049.28 1915.46 1041.39 1916.41 1035.35 1917.01 1031.54 1926.06 1029.39 1926.06 1029.39 1926.06 1029.39 1910.26 1018.9 1906.76 1010.5 1904.35 1004.71 1902.44 996.052 1906.76 991.598 1909.94 988.319 1920.27 991.598 1920.27 991.598 1920.27 991.598 1905.12 973.635 1895.18 974.698 1889.75 975.275 1883.6 986.628 1883.6 986.628 1883.6 986.628 1872.07 965.305 1865.27 969.723 1860.89 972.563 1867.84 980.301 1869.97 987.952 1872.58 997.298 1871.06 1006.52 1871.06 1006.52 1871.06 1006.52 1850.04 1009.72 1850.76 1018.44 1851.61 1028.69 1876.85 1025.41 1876.85 1025.41 1876.85 1025.41 1867.71 1037.44 1871.06 1042.31 1876.63 1050.44 1900.01 1042.31 1900.01 1042.31 1900.01 1042.31 1891.77 1054.52 1895.18 1059.22 1899.04 1064.53 1914.48 1059.22 1914.48 1059.22L1927.99 1070.16 1919.31 1077.12 1934.75 1077.12Z" fill="#F3DE77" fill-rule="evenodd"/><path d="M2041.03 1079.12C2033.63 1068.56 2016.64 1066.06 2020.86 1045.74 2020.86 1045.74 2024.87 1015.4 2015.86 1005.58 2011.85 1001.22 1998.64 1002.27 1998.64 1002.27 1998.64 1002.27 2006.35 993.628 2006.49 984.043 2006.58 977.938 1999.42 977.994 1997.6 973.811 1993.78 965.035 1986.8 946.496 1977.49 947.393 1970.71 948.046 1965.32 964.235 1965.32 964.235 1965.32 964.235 1952.9 953.29 1945.22 952.28 1938.68 951.424 1931.18 953.32 1926.18 957.718 1921.31 961.983 1918.24 975.65 1918.24 975.65L1897.08 957.172C1897.08 957.172 1891.96 944.591 1892.85 938.154 1893.36 934.466 1894.59 929.176 1898.14 928.375 1906.02 926.592 1917.71 943.047 1917.71 943.047L1939.93 943.047C1939.93 943.047 1935.56 931.25 1937.28 925.66 1939.27 919.183 1951.03 910.989 1951.03 910.989 1951.03 910.989 1947.45 901.128 1949.45 896.858 1950.17 895.319 1952.02 894.274 1953.68 894.142 1956.36 893.933 1959.37 895.283 1961.09 897.403 1963.63 900.542 1963.73 909.358 1963.73 909.358 1963.73 909.358 1983.49 908.956 1991.24 914.245 1997.51 918.531 2003.4 933.808 2003.4 933.808 2003.4 933.808 2008.48 929.084 2015.04 934.893 2021.6 940.703 2015.49 964.347 2020.9 977.612 2024.37 986.107 2037.26 999.555 2037.26 999.555 2037.26 999.555 2033.54 1000.75 2031.68 1002.13 2027.55 1005.19 2028.02 1012.12 2027.98 1017.34 2027.96 1019.18 2031.23 1027.19 2031.2 1035.54 2031.17 1041.79 2027.4 1048.22 2029.4 1052.4 2033.13 1060.23 2050.58 1058.2 2045.98 1060.92 2028.5 1071.25 2039.41 1078.68 2041.03 1079.12Z" fill="#F3DE77" fill-rule="evenodd"/><path d="M2010.58 923.691 2000.69 902.645 1992.55 899.638C1992.55 899.638 1985.5 885.43 1988.48 879.196 1991.06 873.816 2004.18 871.382 2004.18 871.382 2004.18 871.382 2002.83 862.277 2005.93 856.947 2007.54 854.182 2010.96 851.886 2014.07 852.14 2020.26 852.638 2023.38 861.758 2023.38 861.758L2025.12 872.581C2025.12 872.581 2046.64 871.468 2054.2 877.992 2064.84 887.184 2068.75 918.28 2068.75 918.28 2068.75 918.28 2056.3 909.941 2050.71 912.868 2044.64 916.054 2043.73 932.709 2043.73 932.709 2043.73 932.709 2040.35 915.221 2032.1 915.271 2024.11 915.322 2022.8 938.121 2022.8 938.121L2018.23 927.593Z" fill="#F3DE77" fill-rule="evenodd"/><path d="M2080 948.122C2080 948.122 2079.38 916.579 2075.33 901.546 2072.27 890.162 2060.74 869.486 2060.74 869.486L2065.41 853.154C2065.41 853.154 2064.07 844.843 2065.41 841.056 2066.55 837.83 2068.56 833.752 2071.83 833.194 2075.19 832.617 2078.9 835.566 2080.58 838.638 2082.3 841.796 2080.58 849.526 2080.58 849.526 2080.58 849.526 2094.36 848.937 2099.84 852.551 2104.57 855.669 2109.17 867.068 2109.17 867.068 2109.17 867.068 2122.85 865.412 2126.67 870.089 2133.58 878.554 2126.67 903.36 2126.67 903.36 2126.67 903.36 2111.46 902.496 2106.84 907.593 2104.01 910.711 2104.21 916.114 2105.09 920.294 2105.62 922.866 2109.17 926.95 2109.17 926.95 2109.17 926.95 2100.83 923.785 2096.92 925.135 2092.48 926.669 2088.79 930.942 2087 935.42 2085.58 938.957 2087 946.91 2087 946.91Z" fill="#F3DE77" fill-rule="evenodd"/><path d="M2133.74 908.328C2133.74 908.328 2140.63 885.036 2138.43 875.039 2136.08 864.377 2122.4 862.233 2119.66 854.101 2118.1 849.482 2118.36 843.032 2121.74 839.602 2123.62 837.701 2126.94 838.32 2129.56 838.529 2132.63 838.773 2135.3 841.213 2135.3 841.213 2135.3 841.213 2133.46 830.474 2135.3 825.641 2136.51 822.459 2138.76 817.977 2142.08 818.124 2146.04 818.303 2148.09 823.929 2149.38 827.79 2151.75 834.9 2149.38 850.34 2149.38 850.34 2149.38 850.34 2152.87 840.501 2158.24 839.602 2161.89 838.992 2164.53 844.206 2166.07 847.657 2168.91 854.015 2166.07 864.301 2166.07 864.301L2168.41 875.919 2182.23 868.056C2182.23 868.056 2181.05 858.278 2185.36 854.101 2189.03 850.538 2194.21 852.693 2198.4 849.802 2203.71 846.142 2200.39 835.21 2205.7 831.546 2208.88 829.356 2213.99 829.366 2217.18 831.546 2220.93 834.128 2222.23 839.784 2222.39 844.434 2222.53 848.393 2218.74 855.712 2218.74 855.712 2218.74 855.712 2230.7 866.873 2232.3 874.5 2235.08 887.745 2223.95 914.233 2223.95 914.233 2223.95 914.233 2208.5 908.449 2201.01 910.477 2192.63 912.739 2180.67 927.121 2180.67 927.121 2180.67 927.121 2180.81 902.681 2177.96 888.05 2176.76 881.839 2178.75 876.971 2173.89 877.184 2169.97 877.362 2170.19 880.975 2169.6 885.996 2168.18 898.142 2171.8 918.527 2171.8 918.527 2171.8 918.527 2167.12 915.25 2165.03 916.382 2162.45 917.78 2162.42 924.971 2162.42 924.971 2162.42 924.971 2157.29 914.848 2152.51 913.161 2149.16 911.976 2142.08 915.305 2142.08 915.305 2142.08 915.305 2143.75 905.191 2140.51 902.422 2138.24 900.47 2133.74 908.328 2133.74 908.328Z" fill="#F3DE77" fill-rule="evenodd"/><path d="M2254.02 955.134 2254.02 940.916 2227.74 932.404C2229.78 931.799 2236.46 923.904 2237.43 913.941 2238.05 907.497 2232.89 900.185 2233.98 893.417 2235.22 885.711 2239.16 876.472 2240.44 873.877 2242.19 870.324 2256.92 881.799 2256.92 881.799 2256.92 881.799 2258.16 862.275 2261.41 857.029 2262.98 854.496 2266.54 852.517 2269.34 853.292 2274.5 854.712 2277.07 861.49 2278.71 866.761 2281.3 875.067 2276.02 891.551 2276.02 891.551 2276.02 891.551 2289.33 882.562 2291.51 885.506 2293.27 887.885 2288.82 902.759 2289.53 905.671 2291 911.737 2296.74 922.883 2296.74 922.883L2270.61 961.122 2265.56 955.134Z" fill="#F3DE77" fill-rule="evenodd"/><path d="M2326.67 961.45 2320.14 933.094 2303.47 928.614C2303.47 928.614 2297.33 909.241 2303.47 903.99 2308.57 899.624 2317.25 911.056 2323.04 907.722 2325.98 906.03 2323.81 899.848 2326.67 898.018 2328.93 896.571 2332.67 896.914 2334.64 898.764 2336.64 900.641 2335.63 904.236 2336.09 906.976 2336.85 911.445 2338.26 920.408 2338.26 920.408L2346.97 930.107 2347.69 945.779C2347.69 945.779 2363.37 947.609 2370.89 945.779 2375.1 944.756 2378.38 938.446 2382.49 939.811 2387.43 941.443 2389.74 953.99 2389.74 953.99L2385.39 977.121 2372.34 957.718 2352.04 955.478 2345.52 968.91 2336.09 956.97Z" fill="#F3DE77" fill-rule="evenodd"/><path d="M1921.52 1050.21C1921.52 1050.21 1911.41 1050.8 1909.13 1047.11 1906.71 1043.18 1913.06 1029.1 1913.06 1029.1 1913.06 1029.1 1891.79 1036.21 1888.59 1028.79 1887.26 1025.69 1896.75 1020.09 1896.75 1020.09 1896.75 1020.09 1883.25 1016.44 1883.46 1012.02 1883.59 1009.1 1898.56 1010.47 1898.56 1010.47 1898.56 1010.47 1889.59 1001.53 1890.71 998.977 1892.75 994.295 1901.88 988.728 1901.88 988.728 1901.88 988.728 1889.88 985.109 1885.88 988.728 1882.37 991.896 1884.06 1003.02 1884.06 1003.02 1884.06 1003.02 1870.11 1009.07 1870.77 1015.12 1871.31 1020.05 1883.46 1022.26 1883.46 1022.26 1883.46 1022.26 1876.42 1032.5 1879.23 1036.55 1884.14 1043.63 1904.6 1037.48 1904.6 1037.48 1904.6 1037.48 1897.97 1050.12 1901.58 1054.56 1905.26 1059.09 1918.8 1054.56 1918.8 1054.56L1925.75 1065.12Z" fill="#F8EC9C" fill-rule="evenodd"/><path d="M1976.49 1073.38C1970.15 1071.76 1964.1 1073.4 1962.82 1066.78 1962.16 1063.39 1969.2 1058.76 1969.2 1058.76 1969.2 1058.76 1948.55 1049.79 1949.6 1040.83 1950.03 1037.16 1959.49 1040.29 1964.11 1038.71 1968.37 1037.24 1967.83 1030.92 1967.83 1030.92 1967.83 1030.92 1938.9 1023.07 1942.31 1011.58 1942.9 1009.58 1948.23 1010.17 1948.23 1010.17L1944.58 990.828C1944.58 990.828 1946.3 982.427 1949.6 980.917 1952.9 979.406 1960.08 983.749 1960.08 983.749 1960.08 983.749 1955.09 969.414 1949.14 969.123 1945.81 968.96 1942.31 976.671 1942.31 976.671 1942.31 976.671 1935.82 969.552 1932.74 971.486 1930.13 973.114 1932.19 977.824 1932.74 980.917 1934.05 988.362 1940.48 1002.15 1940.48 1002.15 1940.48 1002.15 1927.46 1003.18 1926.81 1008.28 1925.13 1021.25 1957.34 1029.03 1957.34 1029.03 1957.34 1029.03 1939.08 1032.51 1938.66 1039.89 1938.1 1049.78 1961.9 1057.34 1961.9 1057.34 1961.9 1057.34 1950.53 1061.96 1949.6 1067.25 1949.18 1069.61 1951.36 1071.98 1953.24 1073.38 1962.75 1080.42 1976.45 1075.46 1986.06 1082.34 1992.64 1087.06 2004.75 1111.12 2004.75 1111.12 2004.75 1111.12 1991.8 1078.35 1983.33 1073.38 1981.74 1072.45 1978.26 1073.84 1976.49 1073.38Z" fill="#F8EC9C" fill-rule="evenodd"/><path d="M2001.74 1118.12C2001.74 1118.12 1990.09 1100.54 1981.1 1096.67 1977.99 1095.33 1973.17 1093.99 1971.01 1096.67 1969.31 1098.77 1976.38 1102.52 1977.89 1104.77 1981.53 1110.2 1988.9 1114.79 1988.9 1114.79Z" fill="#F8EC9C" fill-rule="evenodd"/><path d="M1992.95 1068.7C1992.95 1068.7 1985.78 1060.08 1984.27 1054.81 1983.69 1052.78 1982.55 1049.67 1984.27 1048.49 1986.99 1046.63 1993.37 1052.28 1993.37 1052.28L1987.21 1030.37 1978.07 1015.23C1978.07 1015.23 1963.43 1010.56 1964.84 1005.13 1965.64 1001.98 1971.16 1003.59 1974.34 1003.86 1976.21 1004.02 1979.72 1005.55 1979.72 1005.55 1979.72 1005.55 1975.36 986.953 1976.82 977.757 1977.09 976.086 1977.23 973.229 1978.89 973.126 1982.6 972.902 1983.55 979.214 1984.69 982.812 1988.65 995.406 1987.58 1022.39 1987.58 1022.39 1987.58 1022.39 1993.48 1019.05 1995.43 1018.59 1997.39 1018.15 1995.62 1015.42 1998.74 1018.59 2001.87 1021.77 1998.74 1042.17 1998.74 1042.17 1998.74 1042.17 2003.86 1035.76 2007.02 1036.7 2009.92 1037.57 2010.82 1042.05 2010.74 1045.12 2010.48 1054.91 1997.5 1071.22 1997.5 1071.22L2007.43 1093.12 2003.29 1093.12Z" fill="#F8EC9C" fill-rule="evenodd"/><path d="M2060.05 1180.1 2063.73 1180.12 2064.27 1172.56 2061.95 1163.58C2061.95 1163.58 2062.45 1153.29 2064.47 1147.31 2070.78 1128.63 2070.74 1130.8 2067.95 1129.87 2064.84 1128.83 2058.85 1142.45 2058.85 1142.45 2058.85 1142.45 2050.62 1138.93 2049.76 1128.21 2049.13 1120.47 2056.43 1105.93 2054 1100.68 2053.01 1098.55 2051.04 1095.53 2048.84 1096.07 2046.1 1096.74 2046.75 1115.53 2046.75 1115.53 2046.75 1115.53 2037.99 1112.27 2033.74 1103.99 2031.03 1098.73 2033.43 1087.66 2030.46 1086.3 2027.13 1084.79 2022.09 1082.7 2019.62 1085.49 2017.54 1087.83 2019.68 1092.06 2020.91 1094.99 2022.98 1099.92 2039.41 1116.38 2039.41 1116.38 2039.41 1116.38 2028.81 1107.9 2025.72 1109.06 2024.58 1109.49 2023.07 1110.23 2022.89 1111.5 2022.48 1114.4 2025.6 1116.71 2027.53 1118.83 2032.69 1124.48 2044.05 1136.18 2044.05 1136.18 2044.05 1136.18 2036.47 1132.12 2033.99 1135.37 2033.07 1136.57 2033.39 1138.58 2033.99 1139.98 2035.26 1142.96 2040.95 1146.49 2040.95 1146.49L2049.76 1150.8Z" fill="#F8EC9C" fill-rule="evenodd"/><path d="M2075.62 1053.12C2075.62 1053.12 2058.77 1040.55 2062.33 1033.46 2065.47 1027.21 2082.74 1033.46 2082.74 1033.46 2082.74 1033.46 2056.29 1011.97 2062.33 1000.52 2064.99 995.487 2078.95 1000.52 2078.95 1000.52L2064.71 981.349C2064.71 981.349 2071.27 950.008 2062.33 939.563 2061.16 938.191 2058.64 937.66 2057.11 938.58 2051.75 941.808 2051.9 950.422 2050.94 956.77 2050.03 962.76 2051.42 974.96 2051.42 974.96 2051.42 974.96 2044.84 966.172 2040.49 967.093 2037.57 967.712 2035.65 971.87 2035.75 974.96 2035.99 982.229 2048.09 992.654 2048.09 992.654L2056.16 1012.81C2056.16 1012.81 2048.7 1015.79 2047.14 1019.2 2045.58 1022.62 2046.36 1027.18 2048.09 1030.51 2053.64 1041.19 2075.62 1053.12 2075.62 1053.12Z" fill="#F8EC9C" fill-rule="evenodd"/><path d="M2001.74 968.139C2001.74 968.139 1996.97 946.54 1989.41 939.652 1985.41 936.009 1979.25 933.371 1974.1 934.828 1968.01 936.555 1961.35 949.291 1961.35 949.291 1961.35 949.291 1956.17 941.12 1951.99 940.529 1949.48 940.172 1945.19 944.033 1945.19 944.033 1945.19 944.033 1942.24 932.556 1944.76 927.818 1946.36 924.828 1950.08 921.67 1953.27 922.556 1957.8 923.814 1960.07 935.266 1960.07 935.266 1960.07 935.266 1967.13 924.171 1972.83 922.556 1978.17 921.048 1984.15 923.723 1988.98 926.504 1991.79 928.114 1993.85 930.885 1995.79 933.514 1998.75 937.523 2003.02 946.662 2003.02 946.662 2003.02 946.662 2007.27 942.561 2009.4 943.595 2013.5 945.592 2012.8 957.181 2012.8 957.181L2018.75 993.12 2008.55 970.768Z" fill="#F8EC9C" fill-rule="evenodd"/><path d="M2061.74 907.238C2061.74 907.238 2056.82 882.781 2047.18 878.613 2040.89 875.897 2027.6 884.711 2027.6 884.711 2027.6 884.711 2019.49 867.623 2012.58 869.228 2007.71 870.363 2007.57 883.774 2007.57 883.774 2007.57 883.774 1996.67 879.372 1994.37 880.961 1991 883.28 1993.91 895.039 1993.91 895.039 1993.91 895.039 1995.21 887.382 1998.01 887.529 2002.41 887.758 2011.64 910.122 2011.64 910.122 2011.64 910.122 2013.23 887.896 2018.04 887.529 2022.54 887.188 2032.58 906.744 2032.58 906.744 2032.58 906.744 2037.44 888.039 2043.99 889.404 2052.09 891.101 2061.74 907.238 2061.74 907.238Z" fill="#F8EC9C" fill-rule="evenodd"/><path d="M2135.69 1001.12C2135.69 1001.12 2145.39 987.746 2143.97 980.432 2143.64 978.744 2140.85 978.443 2140.42 976.78 2137.25 964.612 2154.74 951.825 2149.88 940.266 2148.73 937.514 2145.09 935.662 2142.2 936.005 2137.76 936.527 2132.14 945.13 2132.14 945.13 2132.14 945.13 2134.85 934.158 2132.14 929.918 2129.43 925.663 2125.8 918.64 2122.09 922.005 2116.85 926.763 2124.45 944.521 2124.45 944.521 2124.45 944.521 2106.24 934.286 2099.62 939.657 2096.36 942.296 2098.15 948.265 2099.03 952.434 2100.67 960.239 2109.67 973.737 2109.67 973.737 2109.67 973.737 2103.6 955.968 2109.67 953.042 2113.85 951.027 2120.31 962.172 2120.31 962.172 2120.31 962.172 2129.97 950.07 2136.28 954.868 2143.97 960.71 2128 974.345 2128 974.345L2135.1 982.862Z" fill="#F8EC9C" fill-rule="evenodd"/><path d="M2096.32 913.12C2096.32 913.12 2106.85 899.68 2112.75 897.364 2115.36 896.336 2120.96 899.194 2120.96 899.194 2120.96 899.194 2124.97 884.349 2120.96 879.044 2118.63 875.952 2113.19 878.075 2109.89 876.109 2104.87 873.114 2102.63 866.515 2097.75 863.282 2095.09 861.524 2086.56 864.898 2083.82 863.282 2078.83 860.347 2079.48 850.187 2073.82 851.19 2069.19 852.011 2068.46 861.088 2068.46 861.088L2067.74 870.245 2076.67 891.135C2076.67 891.135 2076.91 877.705 2081.32 878.308 2093.17 879.936 2082.39 912.021 2082.39 912.021 2082.39 912.021 2089.7 893.984 2097.04 890.036 2105.86 885.282 2096.32 913.12 2096.32 913.12Z" fill="#F8EC9C" fill-rule="evenodd"/><path d="M2160.03 908.121C2160.03 908.121 2166.34 874.98 2162.52 859.115 2161.61 855.344 2160.42 849.45 2156.71 849.144 2153.1 848.843 2149.66 857.815 2149.66 857.815 2149.66 857.815 2153.8 830.431 2144.69 824.424 2143.46 823.62 2141.43 824.542 2140.53 825.724 2136.07 831.633 2139.29 848.273 2139.29 848.273 2139.29 848.273 2132.94 844.269 2129.75 845.242 2127.3 845.986 2125.09 848.665 2124.78 851.31 2124.47 853.878 2126.65 856.15 2128.09 858.248 2130.38 861.565 2136.39 866.925 2136.39 866.925 2136.39 866.925 2132.68 855.951 2136.39 854.779 2141.63 853.118 2145.51 869.09 2145.51 869.09 2145.51 869.09 2150.47 862.131 2153.39 863.455 2166.62 869.437 2160.03 908.121 2160.03 908.121Z" fill="#F8EC9C" fill-rule="evenodd"/><path d="M2222.24 905.68C2222.24 905.68 2227.35 888.579 2225.22 880.353 2223.46 873.511 2212.87 863.182 2212.87 863.182 2212.87 863.182 2218.06 850.549 2215.85 844.724 2214.81 841.966 2211.95 838.829 2209.04 839.141 2208.14 839.242 2207.73 840.463 2207.34 841.29 2204.51 847.241 2203.08 860.605 2203.08 860.605 2203.08 860.605 2196.09 858.28 2191.58 860.605 2187.07 862.935 2184.97 868.654 2183.07 877.777 2181.17 886.9 2188.17 912.12 2188.17 912.12 2188.17 912.12 2185.76 876.657 2195.41 876.062 2205.07 875.467 2202.23 896.663 2202.23 896.663 2202.23 896.663 2202.8 880.091 2209.04 878.205 2211.57 877.444 2213.9 880.757 2215.43 882.931 2219.97 889.396 2222.24 905.68 2222.24 905.68Z" fill="#F8EC9C" fill-rule="evenodd"/><path d="M2127.18 1178.6 2128.64 1147.31C2128.64 1147.31 2142.84 1145.47 2143.69 1139.74 2144.16 1136.53 2138.89 1135.74 2135.47 1132.99 2130.88 1129.29 2127.67 1124.1 2127.67 1124.1 2127.67 1124.1 2146.16 1113.09 2144.66 1104.42 2143.91 1100.12 2133.49 1098.36 2133.49 1098.36L2133.49 1088.77 2120.87 1080.19 2126.21 1065.05C2126.21 1065.05 2116.3 1046.36 2115.05 1036.29 2114.01 1027.92 2120.3 1018.04 2114.57 1012.07 2113.08 1010.52 2109.73 1011 2108.26 1012.57 2104.06 1017.03 2106.66 1025.05 2107.28 1031.24 2108.39 1042.16 2115.54 1063.04 2115.54 1063.04 2115.54 1063.04 2104.1 1056.4 2101.46 1060.51 2097.1 1067.31 2114.08 1081.2 2114.08 1081.2L2120.39 1086.75 2120.87 1100.88 2120.87 1107.95C2120.87 1107.95 2118.37 1109.36 2117.48 1110.47 2116 1112.33 2114.53 1114.63 2114.57 1117.03 2114.63 1121.54 2120.39 1129.14 2120.39 1129.14L2124.76 1132.17 2121.36 1148.32 2126.21 1181.12Z" fill="#F8EC9C" fill-rule="evenodd"/><path d="M2226.31 1180.54C2226.31 1180.54 2239.6 1149.13 2243.21 1132.5 2245.36 1122.56 2237.84 1107.77 2245.94 1102.05 2249.49 1099.55 2258.27 1105.86 2258.27 1105.86L2261.93 1069.23C2261.93 1069.23 2268.82 1053.75 2275.63 1050.2 2277.39 1049.28 2280.16 1048.75 2281.56 1050.2 2282.53 1051.21 2281.76 1053.07 2281.56 1054.48 2280.48 1062.34 2275.17 1077.32 2275.17 1077.32 2275.17 1077.32 2283.19 1074.74 2285.67 1077.32 2286.75 1078.44 2286.27 1080.62 2285.67 1082.07 2283.68 1086.92 2274.71 1093.01 2274.71 1093.01L2275.63 1086.83 2270.6 1086.83C2270.6 1086.83 2273.71 1077.42 2270.6 1075.41 2269.16 1074.48 2266.04 1077.79 2266.04 1077.79L2261.47 1112.99C2261.47 1112.99 2254.48 1109.57 2251.88 1111.57 2247.17 1115.19 2250.59 1123.73 2249.14 1129.64 2244.45 1148.74 2229.97 1185.3 2229.97 1185.3Z" fill="#F8EC9C" fill-rule="evenodd"/><path d="M2169.58 1009.13C2169.58 1009.13 2162.74 994.518 2166.37 988.833 2169.52 983.908 2182.87 984.964 2182.87 984.964L2169.58 963.702C2169.58 963.702 2166.41 955.168 2169.12 953.071 2171.62 951.149 2177.83 956.455 2177.83 956.455 2177.83 956.455 2185.17 948.688 2189.74 946.31 2193.83 944.183 2201.16 938.545 2203.03 942.927 2205.87 949.56 2186.08 955.49 2186.08 955.49L2185.16 962.738 2190.66 986.415 2178.74 993.18 2179.66 1010.1 2166.37 1047.3Z" fill="#F8EC9C" fill-rule="evenodd"/><path d="M2270.55 945.3 2290.32 921.432C2290.32 921.432 2278.29 919.169 2276.2 914.272 2273.79 908.637 2285 901.533 2281.37 896.61 2279.59 894.187 2274.59 898.694 2272.43 896.61 2265.6 890.022 2276.83 875.494 2271.02 867.969 2270.01 866.662 2267.82 865.879 2266.31 866.537 2264.06 867.525 2263.58 870.796 2263.02 873.22 2261.28 880.653 2263.02 896.133 2263.02 896.133 2263.02 896.133 2253.53 883.034 2247.01 884.199 2243.11 884.896 2240.9 890.238 2240.42 894.223 2239.06 905.463 2251.72 926.206 2251.72 926.206L2253.6 931.457C2253.6 931.457 2245.26 906.187 2254.07 903.293 2257.8 902.067 2261.13 912.84 2261.13 912.84 2261.13 912.84 2262.82 902.476 2266.31 903.293 2272.58 904.764 2267.25 922.865 2267.25 922.865 2267.25 922.865 2278.7 920.23 2280.9 924.296 2284.62 931.158 2270.55 945.3 2270.55 945.3Z" fill="#F8EC9C" fill-rule="evenodd"/><path d="M2190.25 1142.3C2190.25 1142.3 2184.89 1120.29 2190.25 1116.53 2195.61 1112.77 2198.41 1127.89 2203.33 1122.26 2208.25 1116.62 2188.21 1103.37 2189.71 1094.76 2191.2 1086.16 2204.1 1087.28 2204.96 1080.44 2205.82 1073.61 2194.01 1071.64 2194.61 1063.83 2195.21 1056.02 2208.59 1051.45 2212.05 1043.79 2215.5 1036.12 2215.31 1020.3 2215.31 1020.3 2215.31 1020.3 2211.96 1036.69 2207.14 1043.79 2202.32 1050.88 2189.35 1053.59 2186.98 1060.97 2184.61 1068.35 2192.12 1073.95 2191.34 1079.87 2190.57 1085.79 2184.32 1089.23 2183.72 1094.19 2183.11 1099.15 2188.69 1105.04 2186.98 1107.37 2185.28 1109.69 2187.14 1102.22 2183.17 1107.37 2179.21 1112.51 2190.25 1142.3 2190.25 1142.3Z" fill="#F8EC9C" fill-rule="evenodd"/><path d="M2302.14 1029.88C2302.14 1029.88 2295.54 1020.54 2290.53 1019.89 2282.02 1018.79 2267.32 1031.3 2267.32 1031.3 2267.32 1031.3 2271.85 1020.56 2276.14 1017.03 2279.35 1014.4 2286.35 1016.72 2287.75 1012.75 2289.82 1006.88 2277.69 1002.79 2278.46 996.588 2279.18 990.806 2288.17 989.528 2290.53 984.226 2293.36 977.858 2291.92 963.301 2291.92 963.301 2291.92 963.301 2296.46 974.481 2297.03 980.42 2297.64 986.762 2289.69 996.44 2295.18 999.44 2299.25 1001.67 2301.68 988.392 2305.85 990.404 2308.51 991.688 2306.94 996.644 2305.85 999.44 2304.52 1002.88 2299.47 1003.98 2298.42 1007.52 2296.51 1013.98 2301.68 1027.5 2301.68 1027.5Z" fill="#F8EC9C" fill-rule="evenodd"/><path d="M2241.45 1009.3C2241.45 1009.3 2270.55 984.994 2261.61 975.561 2255.12 968.719 2237.78 990.293 2237.78 990.293 2237.78 990.293 2245.44 964.54 2238.7 955.122 2237.66 953.671 2235.13 952.725 2233.66 953.697 2222.71 960.976 2227.25 993.617 2227.25 993.617L2240.07 995.994Z" fill="#F8EC9C" fill-rule="evenodd"/><path d="M2309.74 914.12C2309.77 915.257 2309.7 916.221 2309.88 917.54 2310.2 919.778 2310.45 920.25 2310.85 921.869L2322.38 924.974C2325.45 925.796 2327.81 928.288 2328.55 931.454L2332.62 949.078C2334.86 948.047 2337.43 948.057 2339.67 949.108 2339.35 948.255 2339.18 947.367 2339.13 946.459L2338.52 934.133 2332.01 926.964C2330.85 925.695 2330.09 924.097 2329.81 922.376 2329.81 922.376 2329.09 917.911 2328.52 914.39 2327.97 914.891 2328.01 915.566 2327.33 915.952 2323.28 918.281 2318.81 917.809 2315.92 916.916 2313.25 916.089 2311.38 915.004 2309.74 914.12ZM2379.54 950.483C2379.18 950.813 2378.38 951.076 2377.92 951.442 2378.37 951.873 2378.77 952.35 2379.12 952.873L2380.65 955.121 2380.74 954.588C2380.55 953.731 2380.38 952.721 2379.71 950.869 2379.65 950.706 2379.6 950.645 2379.54 950.483Z" fill="#F8EC9C" fill-rule="evenodd"/><path d="M2323.16 1074.58C2323.16 1074.58 2327.41 1046.27 2338.23 1044.53 2340.64 1044.15 2343.41 1049.86 2343.41 1049.86 2343.41 1049.86 2346.36 1032.5 2352.83 1032.42 2355.92 1032.38 2357.54 1040.66 2357.54 1040.66 2357.54 1040.66 2371.08 1030.9 2375.9 1024.18 2379.57 1019.06 2377.9 1009.58 2383.43 1006.73 2388.47 1004.14 2399.92 1010.61 2399.92 1010.61L2402.74 1018.85C2402.74 1018.85 2396.29 1015.09 2393.32 1016.42 2389.72 1018.05 2389.02 1023.29 2387.67 1027.09 2385.8 1032.35 2384.37 1043.56 2384.37 1043.56L2374.01 1034.84 2374.01 1055.19C2374.01 1055.19 2359.1 1043.21 2352.83 1047.44 2347.17 1051.26 2351.41 1068.28 2351.41 1068.28L2337.76 1055.68 2329.28 1075.06 2329.28 1087.66 2313.74 1089.12 2323.16 1081.85Z" fill="#F8EC9C" fill-rule="evenodd"/><path d="M2328.75 1024.23C2328.75 1024.23 2328.33 1011.59 2332.46 1008.19 2335.63 1005.59 2341.87 1011.34 2344.55 1008.19 2349.01 1002.95 2335.65 988.661 2342.22 987.288 2345.36 986.629 2359.71 1004.42 2368.26 992.635 2373.06 986.017 2359.89 969.302 2359.89 969.302 2359.89 969.302 2359.8 983.402 2354.78 985.827 2348.53 988.841 2341.4 973.515 2335.72 977.564 2328.55 982.672 2342.26 998.314 2336.18 1004.78 2333.47 1007.67 2327.55 1002.2 2324.56 1004.78 2320.68 1008.16 2321.77 1020.34 2321.77 1020.34L2321.31 1039.3Z" fill="#F8EC9C" fill-rule="evenodd"/><path d="M2027.61 1225.3C2027.61 1225.3 2008.88 1304.83 1994.85 1343 1984.28 1371.76 1956.32 1426.3 1956.32 1426.3 1956.32 1426.3 1971.52 1410.4 1977.51 1401.18 1990.55 1381.1 2000.88 1359.04 2008.98 1336.38 2021.64 1301.02 2035.32 1226.62 2035.32 1226.62Z" fill="#F8EC9C" fill-rule="evenodd"/><path d="M2048.21 1226.3C2048.21 1226.3 2030.61 1311.53 2022.01 1354.19 2017.25 1377.81 2007.96 1425.09 2007.96 1425.09L2007.32 1444.3C2007.32 1444.3 2015.33 1424.25 2018.18 1413.82 2024.98 1388.9 2028.07 1363.05 2032.87 1337.62 2039.83 1300.76 2053.32 1226.97 2053.32 1226.97Z" fill="#F8EC9C" fill-rule="evenodd"/><path d="M2068.67 1232.3C2068.67 1232.3 2051.69 1317.8 2048.28 1361.2 2046.11 1388.87 2048.28 1444.49 2048.28 1444.49L2055.93 1466.3 2055.93 1438.54C2055.93 1438.54 2057.03 1370.09 2060.39 1336.08 2063.8 1301.45 2076.31 1232.96 2076.31 1232.96Z" fill="#F8EC9C" fill-rule="evenodd"/><path d="M2091.31 1231.3 2094.48 1380.74 2097.65 1450.18 2103.35 1475.3 2110.31 1459.43 2102.08 1286.18 2097.65 1231.96Z" fill="#F8EC9C" fill-rule="evenodd"/><path d="M2125.32 1227.3 2137 1419.98 2142.18 1459.71 2149.32 1470.3 2149.32 1458.38 2143.48 1367.67 2137.64 1249.15Z" fill="#F8EC9C" fill-rule="evenodd"/><path d="M2160.32 1224.97C2160.32 1224.97 2160.88 1365.56 2177.14 1433.18 2180.45 1446.93 2193.32 1472.3 2193.32 1472.3L2192.68 1442.46C2192.68 1442.46 2180.85 1401.73 2177.79 1380.8 2170.24 1329.13 2169.38 1224.3 2169.38 1224.3Z" fill="#F8EC9C" fill-rule="evenodd"/><path d="M2203.31 1229.62C2203.31 1229.62 2208.58 1356.84 2215.99 1392.22 2223.39 1427.6 2227.44 1432.07 2233.74 1443.12 2240.03 1454.16 2248.31 1460.3 2248.31 1460.3L2248.31 1445.76C2248.31 1448.03 2230.7 1420.95 2224.23 1379 2219.8 1350.31 2215.93 1301.67 2213.46 1276.55 2210.98 1251.43 2209.01 1228.3 2209.01 1228.3Z" fill="#F8EC9C" fill-rule="evenodd"/><path d="M2239.32 1226.3C2239.32 1226.3 2248.01 1316.78 2258.69 1360.74 2264.9 1386.3 2284.53 1435.21 2284.53 1435.21L2301.32 1456.3 2301.32 1439.82C2301.32 1439.82 2276.41 1383.23 2268.38 1354.81 2256.36 1312.27 2248.36 1227.62 2248.36 1227.62Z" fill="#F8EC9C" fill-rule="evenodd"/><path d="M2264.35 1228.12C2264.35 1228.12 2282.85 1307.64 2296.69 1345.81 2307.14 1374.58 2334.74 1429.12 2334.74 1429.12 2334.74 1429.12 2319.73 1413.21 2313.82 1403.99 2300.95 1383.92 2290.75 1361.86 2282.74 1339.2 2270.25 1303.84 2256.74 1229.44 2256.74 1229.44Z" fill="#F8EC9C" fill-rule="evenodd"/><path d="M2002.14 1176.28C2108.39 1196.93 2190.71 1191.33 2291.22 1176.28 2304.15 1200.95 2307.03 1225.63 2291.22 1250.3 2234.53 1267.4 2096.4 1280.29 2002.14 1250.3 1984.05 1228.31 1980.01 1204.24 2002.14 1176.28Z" stroke="#806600" stroke-width="3.6977" stroke-miterlimit="8" fill="#D1BA4A" fill-rule="evenodd"/><path d="M2006.43 1185.28C2006.43 1185.28 2051.74 1196.33 2074.86 1197.96 2133.98 1202.12 2193.34 1194.28 2252.47 1190.35 2264.99 1189.52 2289.95 1186.97 2289.95 1186.97 2289.95 1186.97 2274.95 1198.24 2266.33 1201.34 2245.6 1208.78 2201.15 1210.64 2201.15 1210.64 2201.15 1210.64 2248.2 1213.11 2271.21 1208.95 2278.83 1207.57 2293.21 1201.34 2293.21 1201.34 2293.21 1201.34 2279.98 1213.62 2272.03 1217.4 2262.14 1222.09 2251.07 1223.9 2240.25 1225.01 2222.13 1226.86 2185.67 1223.32 2185.67 1223.32 2185.67 1223.32 2224.17 1230.48 2243.51 1229.23 2260.74 1228.12 2294.02 1217.4 2294.02 1217.4 2294.02 1217.4 2278.93 1228.42 2270.4 1231.77 2250.47 1239.58 2207.66 1244.45 2207.66 1244.45 2207.66 1244.45 2240.98 1244.63 2257.36 1241.91 2268.49 1240.06 2289.95 1232.61 2289.95 1232.61 2289.95 1232.61 2281.03 1241.88 2273.66 1245.29 2254.21 1254.3 2208.48 1256.28 2208.48 1256.28 2208.48 1256.28 2105.82 1256.28 2099.31 1256.28 2092.79 1256.28 2077.51 1255.32 2066.72 1253.75 2045.57 1250.66 2003.98 1240.22 2003.98 1240.22L2060.2 1244.45 2098.49 1242.76C2098.49 1242.76 2044.18 1239.43 2023.54 1235.15 2009.97 1232.33 1995.84 1223.32 1995.84 1223.32 1995.84 1223.32 2027.27 1227.82 2043.09 1228.39 2050.96 1228.67 2066.72 1227.54 2066.72 1227.54 2066.72 1227.54 2046.49 1225.51 2036.57 1223.32 2022.45 1220.19 1995.02 1210.64 1995.02 1210.64 1995.02 1210.64 2034.66 1212.37 2054.49 1212.33 2071.62 1212.29 2116.02 1217.91 2116.02 1217.91 2116.02 1217.91 2065.52 1209.05 2048.79 1206.41 2035.63 1204.33 2012.13 1203.88 2012.13 1203.88 2012.13 1203.88 2001.49 1198.01 2000.38 1194.4 1999.29 1190.82 2006.43 1185.28 2006.43 1185.28Z" fill="#F3DE77" fill-rule="evenodd"/><path d="M2010.32 1192.29C2103.8 1212.98 2195.48 1201.23 2287.32 1192.29L2255.27 1201.35C2184.92 1204.46 2122.48 1212.7 2030.96 1201.88Z" fill="#F8EC9C" fill-rule="evenodd"/><path d="M2002.74 1213.12C2096.69 1234.36 2188.17 1225.35 2278.74 1213.12L2246.81 1222.68C2175.15 1232.94 2109.66 1241.99 2023.31 1223.24Z" fill="#F8EC9C" fill-rule="evenodd"/><path d="M2009.74 1234.12C2101.71 1253.63 2193.74 1239.45 2285.74 1234.12L2253.81 1243.5C2182.15 1245.74 2116.69 1259.13 2030.31 1244.05Z" fill="#F8EC9C" fill-rule="evenodd"/><path d="M2184.81 1343.38C2184.81 1343.38 2178.67 1312.85 2171.7 1300.26 2156.33 1272.54 2125.8 1235.13 2104.92 1211.57 2091.41 1196.33 2069.74 1185.7 2069.74 1185.7 2069.74 1185.7 2086.49 1176.21 2097.17 1173.38 2110.65 1169.81 2129.7 1170.65 2143.08 1174.62 2165.59 1181.3 2181.99 1192.66 2199.72 1208.49 2214.1 1221.34 2227.44 1236.03 2237.28 1252.84 2247.54 1270.35 2258.74 1310.12 2258.74 1310.12 2258.74 1310.12 2255.36 1322.21 2250.4 1324.29 2245.26 1326.44 2234.3 1319.98 2234.3 1319.98 2234.3 1319.98 2229.35 1331.56 2224.17 1333.53 2218.82 1335.55 2207.47 1329.83 2207.47 1329.83 2207.47 1329.83 2205.61 1342.43 2200.91 1345.23 2196.24 1348.01 2184.81 1343.38 2184.81 1343.38Z" stroke="#806600" stroke-width="3.6977" stroke-miterlimit="8" fill="#D1BA4A" fill-rule="evenodd"/><path d="M2088.74 1184.05 2141.46 1236.25 2169.53 1277.77 2187.29 1322.85 2195.31 1334.12 2193.02 1309.2 2168.96 1258.19 2134.58 1219.04 2112.23 1197.1 2146.61 1219.04C2146.61 1219.04 2170.09 1252.82 2179.84 1270.06 2188.29 1284.98 2201.62 1313.95 2201.62 1313.95L2213.65 1319.29 2213.65 1310.39C2213.65 1310.39 2199.39 1281.5 2187.29 1262.34 2185.64 1259.73 2166.67 1224.97 2191.87 1257.01 2217.09 1289.04 2217.8 1284.76 2223.96 1303.27 2224.83 1305.89 2223.96 1311.58 2223.96 1311.58L2229.12 1316.32 2237.14 1311.58C2237.14 1311.58 2234.41 1306.72 2233.7 1304.46 2227.78 1285.45 2218.32 1271.82 2206.77 1255.82 2199.68 1246 2181.56 1226.76 2181.56 1226.76 2181.56 1226.76 2203.86 1240.35 2213.08 1251.67 2227.4 1269.26 2241.15 1314.54 2244.59 1314.54 2248.03 1314.54 2249.74 1306.24 2249.74 1306.24 2249.74 1306.24 2238.66 1274.44 2230.83 1260.57 2223.34 1247.27 2205.06 1226.16 2205.06 1226.16L2143.18 1182.27 2146.61 1197.69C2146.61 1197.69 2136.9 1186.81 2130.85 1183.03 2127.45 1180.89 2119.68 1178.71 2119.68 1178.71L2125.99 1196.5 2098.48 1178.12 2101.35 1189.98Z" fill="#F3DE77" fill-rule="evenodd"/><path d="M2100.31 1189.3C2100.31 1189.3 2129.96 1215.85 2143.21 1230.76 2153.38 1242.2 2163.6 1253.9 2171.12 1267.38 2180.65 1284.43 2192.31 1322.3 2192.31 1322.3 2192.31 1322.3 2190.2 1302.33 2187.66 1292.69 2184.29 1279.86 2180.41 1266.85 2173.71 1255.53 2162.88 1237.25 2148.52 1220.95 2132.36 1207.61 2122.81 1199.73 2100.31 1189.3 2100.31 1189.3Z" fill="#F8EC9C" fill-rule="evenodd"/><path d="M2120.31 1179.3C2120.31 1179.3 2165.08 1212.07 2181.73 1234.19 2191.14 1246.69 2196.51 1262.05 2202.38 1276.71 2208.03 1290.85 2216.31 1320.3 2216.31 1320.3 2216.31 1320.3 2211.86 1288.95 2207.02 1274.02 2201.65 1257.45 2196.19 1240 2185.34 1226.66 2168.24 1205.63 2120.31 1179.3 2120.31 1179.3Z" fill="#F8EC9C" fill-rule="evenodd"/><path d="M2187.31 1214.3C2187.31 1214.3 2205.26 1236.12 2212.8 1248.1 2225.42 1268.16 2245.56 1311.4 2245.56 1311.4L2252.31 1317.3C2252.31 1317.3 2248.89 1309.41 2247.11 1305.5 2237.81 1285 2231.52 1262.57 2218.51 1244.34 2210.08 1232.53 2187.31 1214.3 2187.31 1214.3Z" fill="#F8EC9C" fill-rule="evenodd"/><path d="M2084.74 1259.33C2084.74 1259.33 2084.63 1268.56 2087.73 1271.02 2092.3 1274.66 2102.05 1271.02 2102.05 1271.02 2102.05 1271.02 2105.75 1280.51 2109.81 1282.71 2113.15 1284.53 2121.15 1282.71 2121.15 1282.71 2121.15 1282.71 2126.36 1289.39 2130.1 1290.71 2133.49 1291.91 2140.84 1290.1 2140.84 1290.1 2174.19 1259.78 2204.15 1224.81 2232.74 1187.96 2232.74 1187.96 2232.68 1175.8 2228.57 1172.58 2225.08 1169.85 2215.44 1172.58 2215.44 1172.58 2215.44 1172.58 2211.16 1165.21 2207.08 1163.97 2201.41 1162.24 2190.97 1168.28 2190.97 1168.28 2190.97 1168.28 2185.17 1162.06 2181.42 1162.12 2177.84 1162.18 2172.47 1168.28 2172.47 1168.28 2147.31 1198.63 2120.89 1228.98 2084.74 1259.33Z" stroke="#806600" stroke-width="3.6977" stroke-miterlimit="8" fill="#D1BA4A" fill-rule="evenodd"/><path d="M2133.83 1290.12 2226.75 1184.67 2191.73 1209.23 2207.9 1173.12 2162.11 1222.23 2185.01 1180.34 2164.8 1196.23 2178.27 1173.12 2090.75 1268.45 2150 1213.56 2105.56 1274.23 2174.23 1217.9 2114.98 1280.01 2166.15 1238.12Z" fill="#F3DE77" fill-rule="evenodd"/><path d="M2106 1254.49 2100.32 1265.3 2106.44 1263.5C2106.44 1263.5 2155.88 1219.75 2175.52 1193.26 2180.38 1186.69 2187.32 1171.65 2187.32 1171.65L2185.13 1170.3 2181.64 1170.3C2181.64 1170.3 2161.76 1196.28 2151.03 1208.57 2137.53 1224.04 2108.62 1253.14 2108.62 1253.14Z" fill="#F8EC9C" fill-rule="evenodd"/><path d="M2129.04 1259.66 2123.74 1270.12 2129.44 1268.38C2129.44 1268.38 2175.48 1226.01 2193.75 1200.36 2198.29 1193.99 2204.74 1179.43 2204.74 1179.43L2202.71 1178.12 2199.45 1178.12C2199.45 1178.12 2180.95 1203.28 2170.96 1215.18 2158.39 1230.17 2131.48 1258.35 2131.48 1258.35Z" fill="#F8EC9C" fill-rule="evenodd"/><path d="M2154.71 1256.22 2149.74 1266.12 2155.09 1264.47C2155.09 1264.47 2198.28 1224.4 2215.43 1200.15 2219.69 1194.13 2225.74 1180.36 2225.74 1180.36L2223.83 1179.12 2220.78 1179.12C2220.78 1179.12 2203.41 1202.91 2194.04 1214.17 2182.25 1228.33 2157 1254.99 2157 1254.99Z" fill="#F8EC9C" fill-rule="evenodd"/><path d="M1840.14 793.685C1850.87 805.772 1849.77 824.269 1837.68 835 1825.59 845.731 1807.1 844.632 1796.37 832.545 1785.64 820.459 1786.73 801.961 1798.82 791.23 1810.91 780.499 1829.41 781.598 1840.14 793.685Z" stroke="#806600" stroke-width="3.4375" stroke-linecap="round" stroke-miterlimit="8" fill="#E7CD54" fill-rule="evenodd"/><path d="M1805.1 797.009C1796.33 804.79 1795.43 819.84 1803.21 828.605 1810.99 837.374 1826.05 838.268 1834.82 830.483 1843.58 822.7 1844.47 807.649 1836.69 798.886 1828.91 790.123 1813.86 789.23 1805.1 797.009Z" fill="#FEE46E" fill-rule="evenodd"/><path d="M1812.84 802.27C1807.02 807.428 1806.43 817.412 1811.58 823.222 1816.74 829.034 1826.73 829.627 1832.54 824.467 1838.35 819.308 1838.94 809.325 1833.78 803.514 1828.62 797.705 1818.65 797.112 1812.84 802.27Z" fill="#FFEFAB" fill-rule="evenodd"/><path d="M1198.22 157.831 1665.42 701.981 1724.9 649.171 1239.9 120.831C1225.72 106.028 1207.11 84.4223 1172.61 87.002 1165.95 120.964 1184.06 139.306 1198.22 157.831Z" stroke="#666666" stroke-width="3.73921" stroke-miterlimit="8" fill="#D9D8CE" fill-rule="evenodd"/><path d="M1174.04 89.9671C1174.36 109.888 1186.31 136.164 1201.94 154.475L1646.1 659.157C1653.83 667.95 1659.56 681.532 1660.7 693.166L1671.19 649.251ZM1180.74 89.5321 1678.13 643.087 1714.18 641.519C1704.36 637.588 1692.84 633.31 1685.04 624.585L1237.17 123.195C1220.95 105.409 1197.46 94.899 1180.74 89.5321Z" fill="#F2F2EE" fill-rule="evenodd"/><path d="M1655.6 650.801C1661.23 657.2 1660.64 661.929 1661.79 673.562L1668.48 645.506 1174.44 89.0606C1175.64 100.54 1195.77 127.801 1211.4 146.138Z" fill="#FFFFFF" fill-rule="evenodd"/><path d="M1405.79 355.77C1501.36 463.419 1692.51 678.715 1692.51 678.715L1698.59 673.32C1698.59 673.32 1507.44 458.023 1411.86 350.375 1381.52 316.197 1316.31 248.871 1316.31 248.871 1316.31 248.871 1375.44 321.594 1405.79 355.77Z" fill="#D9D8CE" fill-rule="evenodd"/><path d="M1781.81 807.187C1736.79 768.682 1729.97 767.124 1698.86 719.72L1740.9 682.401C1783 724.03 1786.25 727.805 1817.29 775.687Z" stroke="#806600" stroke-width="3.46673" stroke-miterlimit="8" fill="#E7CD54" fill-rule="evenodd"/><path d="M1813.08 784.307C1811.48 783.229 1810.03 781.772 1808.96 780.17 1780.43 736.123 1780.28 735.841 1742.15 697.176L1712.89 723.152 1712.89 723.152C1742.22 764.876 1744.94 763.593 1787.17 799.691 1788.61 800.916 1789.85 802.487 1790.7 804.169Z" fill="#FEE46E" fill-rule="evenodd"/><path d="M1687.58 724.447 1744.96 673.502 1753.97 683.649 1696.58 734.594Z" stroke="#806600" stroke-width="3.46673" stroke-miterlimit="8" fill="#FEE46E" fill-rule="evenodd"/><path d="M1638.43 742.17C1610.76 747.059 1579.52 741.353 1549.88 719.319 1538.74 713.241 1527.03 716.232 1522.93 719.998 1522.06 707.448 1532.25 694.631 1552.28 699.259 1550.06 676.424 1561.91 670.355 1571.18 669.924 1565.78 679.058 1564.43 688.803 1570.57 694.96 1592.92 711.591 1613.15 714.186 1632.82 710.71 1656.94 706.447 1675.64 694.029 1682.72 660.453 1716.91 657.391 1731.45 640.29 1738.54 616.849 1744.32 597.729 1744.14 577.335 1730.27 553.169 1724.88 546.348 1715.05 546.53 1705.34 550.817 1706.86 541.657 1714.29 530.612 1736.7 535.524 1734.48 515.086 1748.41 506.488 1760.77 508.834 1756.55 512.461 1752.19 523.732 1756.91 535.513 1775.28 567.554 1777.24 599.253 1769.11 626.151 1759.35 658.422 1737.1 683.577 1718.17 700.382 1699.25 717.187 1671.63 736.303 1638.43 742.17Z" stroke="#806600" stroke-width="3.4375" stroke-miterlimit="8" fill="#E7CD54" fill-rule="evenodd"/><path d="M1538.9 707.817C1543.75 708.142 1548.79 709.171 1553.86 711.938 1554.23 712.141 1554.59 712.372 1554.92 712.628 1582.85 733.388 1611.53 738.405 1637.03 733.898 1667.93 728.435 1694.26 710.308 1712.52 694.098 1730.78 677.887 1751.98 653.809 1761.06 623.779 1768.55 598.992 1766.97 569.919 1749.66 539.732 1749.45 539.366 1749.26 538.986 1749.1 538.595 1746.96 533.233 1746.53 528.106 1746.78 523.248 1745.4 525.798 1744.49 529.065 1745.09 534.573 1745.6 539.196 1742.28 543.363 1737.65 543.881 1736.74 543.982 1735.82 543.933 1734.93 543.74 1733.26 543.374 1732.47 543.6 1731.09 543.434 1733.16 544.728 1735.3 545.944 1736.88 547.955 1737.13 548.293 1737.34 548.647 1737.53 549.016 1752.4 574.922 1752.87 598.462 1746.6 619.213 1742.76 631.923 1736.65 643.776 1726.33 652.68 1717.19 660.564 1704.45 665.383 1689.03 667.642 1684.97 682.676 1678.74 694.702 1669.85 702.828 1659.8 712.004 1647.28 716.683 1634.21 718.993 1612.87 722.765 1589.55 719.504 1565.58 701.677 1565.24 701.446 1564.91 701.19 1564.61 700.91 1562.8 699.094 1561.84 696.831 1560.8 694.618 1560.81 696.011 1560.49 696.773 1560.65 698.468 1561.09 703.098 1557.7 707.211 1553.07 707.654 1552.16 707.74 1551.24 707.679 1550.35 707.471 1544.95 706.223 1541.6 706.747 1538.9 707.815Z" fill="#FEE46E" fill-rule="evenodd"/><path d="M1753.21 623.268C1760.61 600.443 1759.83 573.244 1742.36 541.765 1740.44 543.493 1737.74 544.352 1734.93 543.741 1733.26 543.375 1732.47 543.603 1731.09 543.434 1733.16 544.728 1735.29 545.945 1736.88 547.955 1737.13 548.293 1737.34 548.649 1737.53 549.019 1752.39 574.925 1752.87 598.465 1746.6 619.215 1742.76 631.917 1736.63 643.792 1726.33 652.682 1717.2 660.553 1704.52 665.316 1689.08 667.606 1684.97 682.678 1678.74 694.701 1669.84 702.829 1659.8 712.005 1647.28 716.682 1634.21 718.992 1612.87 722.765 1589.55 719.504 1565.58 701.678 1565.24 701.446 1564.91 701.19 1564.6 700.911 1562.8 699.096 1561.84 696.831 1560.8 694.618 1560.8 696.011 1560.49 696.773 1560.65 698.47 1560.93 701.337 1559.75 703.916 1557.81 705.616 1587 726.695 1613.91 730.682 1637.45 726.037 1665.79 720.446 1688.69 701.77 1705.87 686.518 1723.04 671.269 1744.3 650.738 1753.21 623.268Z" fill="#FFEFAB" fill-rule="evenodd"/><path d="M1713.22 723.25C1716.33 727.664 1719 731.375 1721.59 734.921L1730.22 708.153ZM1737.94 701.303 1725.42 740.078C1729.06 744.922 1732.42 749.227 1735.5 752.843L1750.72 705.647C1748.08 702.965 1745.59 700.417 1742.48 697.269ZM1754.87 709.86 1739.52 757.392C1742.95 761.132 1746.48 764.538 1750.28 768.011L1765.49 720.895C1762.38 717.601 1758.91 713.988 1754.87 709.86ZM1769.56 725.326 1754.55 771.869C1757.8 774.716 1761.54 777.897 1765.67 781.354L1779.89 737.277C1776.8 733.408 1773.37 729.49 1769.56 725.326ZM1783.76 742.343 1770 784.988C1773.32 787.767 1777.09 790.973 1781.14 794.4L1793.5 756.137C1789.97 750.889 1786.8 746.397 1783.76 742.343ZM1797.2 761.715 1785.46 798.057C1786.2 798.685 1786.74 799.129 1787.5 799.781 1788.96 801.026 1790.18 802.579 1791.04 804.259L1800.31 796.028 1806.69 776.255C1803.13 770.764 1799.98 765.944 1797.2 761.715Z" fill="#FFEFAB" fill-rule="evenodd"/><path d="M1771.52 804.818 1815.58 765.7 1824.61 775.864 1780.55 814.982Z" stroke="#806600" stroke-width="3.4375" stroke-miterlimit="8" fill="#FEE46E" fill-rule="evenodd"/><path d="M58.7532 29.3159C58.7532 45.4789 45.6505 58.5816 29.4875 58.5816 13.3245 58.5816 0.221831 45.4789 0.221831 29.3159 0.221831 13.1529 13.3245 0.0502259 29.4875 0.0502259 45.6505 0.0502259 58.7532 13.1529 58.7532 29.3159Z" stroke="#806600" stroke-width="3.4375" stroke-linecap="round" stroke-miterlimit="8" fill="#E7CD54" fill-rule="evenodd" transform="matrix(-0.7478 -0.663924 -0.663924 0.7478 1233.85 810.77)"/><path d="M22.6938 0.119984C10.9712 0.117891 0.308332 10.7769 0.308332 22.4976 0.304495 34.2208 10.9712 44.8857 22.6938 44.8836 34.416 44.8826 45.0747 34.2187 45.0709 22.4976 45.0709 10.779 34.4118 0.120681 22.6938 0.119984Z" fill="#FEE46E" fill-rule="evenodd" transform="matrix(-0.7478 -0.663924 -0.663924 0.7478 1222.54 811.986)"/><path d="M15.1549 0.119984C7.38423 0.11824 0.308679 7.18751 0.308679 14.9575 0.308679 22.7292 7.38423 29.8048 15.1549 29.8034 22.9253 29.803 29.9928 22.7278 29.9928 14.9575 29.9928 7.1889 22.9253 0.120681 15.1549 0.119984Z" fill="#FFEFAB" fill-rule="evenodd" transform="matrix(-0.7478 -0.663924 -0.663924 0.7478 1209.16 812.242)"/><path d="M11.4103 69.8026-0.495632 786.899 79.0465 786.899 67.1405 69.8026C66.3686 49.323 66.7952 20.8089 39.2854-0.165676 11.7556 20.8089 13.117 46.5445 11.4103 69.8026Z" stroke="#666666" stroke-width="3.73921" stroke-miterlimit="8" fill="#D9D8CE" fill-rule="evenodd" transform="matrix(-0.7478 -0.663924 -0.663924 0.7478 1867.24 113.208)"/><path d="M36.0197-0.223575C23.037 14.8899 14.524 42.4692 14.0566 66.5407L11.131 738.833C11.0703 750.537 6.33614 764.497-0.531209 773.956L36.4668 748.08ZM41.3227 3.90298 45.7516 748.08 73.7487 770.84C69.0149 761.381 63.2445 750.537 63.2041 738.833L61.1724 66.5417C60.8473 42.4692 50.2618 19.0165 41.3227 3.90298Z" fill="#F2F2EE" fill-rule="evenodd" transform="matrix(-0.7478 -0.663924 -0.663924 0.7478 1863.33 114.049)"/><path d="M9.98862 739.357C9.94781 747.879 6.37203 751.028-0.49528 760.487L23.1338 743.947 23.1338-0.162537C16.4088 9.21751 13.3611 42.9673 12.8735 67.0552Z" fill="#FFFFFF" fill-rule="evenodd" transform="matrix(-0.7478 -0.663924 -0.663924 0.7478 1853.33 104.541)"/><path d="M-0.487965 139.153C-0.487965 283.106-0.487965 571.013-0.487965 571.013L7.63897 571.013C7.63897 571.013 7.63897 283.106 7.63897 139.153 7.63897 93.4489 3.5755-0.191138 3.5755-0.191138 3.5755-0.191138-0.487965 93.4499-0.487965 139.153Z" fill="#D9D8CE" fill-rule="evenodd" transform="matrix(-0.7478 -0.663924 -0.663924 0.7478 1696.82 251.388)"/><path d="M8.15963 120.216C0.0606898 61.5341-4.00692 55.8394 4.20259-0.262291L60.4121-0.262291C64.2575 58.8198 64.1839 63.8027 55.6044 120.216Z" stroke="#806600" stroke-width="3.46673" stroke-miterlimit="8" fill="#E7CD54" fill-rule="evenodd" transform="matrix(-0.7478 -0.663924 -0.663924 0.7478 1314.69 722.707)"/><path d="M37.0758 111.986C36.5952 110.117 36.4846 108.071 36.7434 106.158 44.6571 54.2824 44.7311 53.9709 41.8835-0.262291L2.75929-0.262291 2.75929-0.262291C-3.01007 50.4115-0.125216 51.2573 7.49203 106.291 7.75118 108.159 7.64027 110.162 7.15963 111.986Z" fill="#FEE46E" fill-rule="evenodd" transform="matrix(-0.7478 -0.663924 -0.663924 0.7478 1299.58 725.18)"/><path d="M-0.294728-0.262294 76.4382-0.262294 76.4382 13.3069-0.294728 13.3069Z" stroke="#806600" stroke-width="3.46673" stroke-miterlimit="8" fill="#FEE46E" fill-rule="evenodd" transform="matrix(-0.7478 -0.663924 -0.663924 0.7478 1322.61 724.447)"/><path d="M71.8838 103.321C47.9449 88.6051 28.3721 63.5971 20.8337 27.4387 16.5383 15.4975 5.79831 9.96216 0.2309 10.0556 7.91512 0.0945223 24.0422-2.7258 35.9489 14.0336 49.4475-4.51824 62.336-1.19112 69.5591 4.64589 59.4518 7.88616 51.9755 14.2805 52.4753 22.9581 58.1501 50.236 71.5549 65.6068 88.5703 76.0657 109.436 88.8904 131.667 92.0215 159.257 71.6172 186.85 92.0215 209.081 88.8904 229.944 76.0657 246.962 65.6068 260.366 50.236 266.041 22.9581 266.541 14.2805 259.065 7.88616 248.958 4.64589 256.181-1.19112 269.07-4.51824 282.566 14.0336 294.472-2.7258 310.599 0.0945223 318.286 10.0556 312.718 9.96216 301.976 15.4975 297.681 27.4387 290.145 63.595 270.57 88.6051 246.631 103.321 217.91 120.975 184.569 125.013 159.257 125.013 133.946 125.013 100.605 120.975 71.8838 103.321Z" stroke="#806600" stroke-width="3.4375" stroke-miterlimit="8" fill="#E7CD54" fill-rule="evenodd" transform="matrix(-0.7478 -0.663924 -0.663924 0.7478 1494.5 712.632)"/><path d="M0.2309 0.0474357C3.64278 3.51198 6.73028 7.62912 8.6849 13.0643 8.82651 13.4616 8.93848 13.8704 9.02079 14.2858 16.1204 48.3505 34.2363 71.1434 56.2984 84.7037 83.035 101.136 114.757 105.06 139.173 105.06 163.589 105.06 195.432 101.132 222.16 84.7037 244.219 71.1434 262.337 48.3505 269.437 14.2858 269.519 13.8704 269.631 13.4616 269.773 13.0643 271.728 7.62912 274.813 3.51198 278.227 0.0474357 275.503 1.0387 272.648 2.8723 269.44 7.3895 266.756 11.1892 261.502 12.0961 257.702 9.41493 256.953 8.88512 256.297 8.23881 255.756 7.49902 254.754 6.11955 254.011 5.76343 253.086 4.71985 253.778 7.06512 254.569 9.39226 254.42 11.95 254.377 12.3633 254.304 12.7721 254.201 13.1739 248.117 42.4155 232.845 60.335 214.375 71.6868 203.064 78.6407 190.627 83.4498 176.999 83.2559 164.93 83.0846 152.206 78.2319 139.175 69.684 126.156 78.2294 113.512 83.0846 101.466 83.2559 87.8602 83.4477 75.394 78.6361 64.0876 71.6868 45.6202 60.335 30.3473 42.4155 24.2637 13.1739 24.1587 12.7721 24.0833 12.3633 24.0401 11.95 23.894 9.39226 24.6819 7.06512 25.3735 4.71985 24.451 5.76343 23.7066 6.12199 22.7042 7.49902 19.9617 11.2555 14.6932 12.0776 10.9367 9.33506 10.1969 8.79374 9.5506 8.13836 9.02079 7.3895 5.81226 2.8723 2.95775 1.0387 0.233341 0.0474357Z" fill="#FEE46E" fill-rule="evenodd" transform="matrix(-0.7478 -0.663924 -0.663924 0.7478 1471.89 707.934)"/><path d="M201.022 74.4341C221.71 62.2783 239.191 41.4269 247.024 6.28451 244.443 6.30474 241.853 5.15408 240.154 2.82939 239.152 1.44992 238.405 1.09137 237.485 0.0477843 238.177 2.39305 238.965 4.72019 238.819 7.27787 238.775 7.69119 238.7 8.09997 238.595 8.50178 232.511 37.7434 217.238 55.6628 198.771 67.0146 187.465 73.9635 174.998 78.7751 161.392 78.5833 149.344 78.412 136.702 73.5572 123.628 65.0118 110.552 73.5572 97.9103 78.412 85.862 78.5833 72.256 78.7751 59.7923 73.9635 48.4859 67.0146 30.0184 55.6628 14.7455 37.7434 8.65979 8.50178 8.5569 8.09997 8.48156 7.69119 8.43587 7.27787 8.28973 4.72019 9.07974 2.39305 9.77174 0.0477843 8.84919 1.09137 8.10487 1.44992 7.10209 2.82939 5.40313 5.15408 2.8137 6.30474 0.2309 6.28451 8.06371 41.4269 25.5448 62.2783 46.232 74.4341 71.1304 89.063 100.657 90.303 123.628 90.303 146.597 90.303 176.124 89.063 201.022 74.4341Z" fill="#FFEFAB" fill-rule="evenodd" transform="matrix(-0.7478 -0.663924 -0.663924 0.7478 1457.12 701.07)"/><path d="M3.24167 0.0394134C2.63372 5.40242 2.16879 9.9517 1.74919 14.3214L25.9801 0.0394134ZM36.2977 0.0394134 1.19531 20.7259C0.698629 26.7624 0.350536 32.2108 0.253571 36.96L42.9704 11.7727C42.7793 8.01661 42.6052 4.45476 42.374 0.0394134ZM43.276 17.6778 0.242061 43.0335C0.325074 48.108 0.704559 52.9998 1.241 58.1201L43.8895 32.9785C43.7524 28.4519 43.5557 23.4457 43.276 17.6778ZM43.9952 38.9976 1.86603 63.834C2.40562 68.1206 3.09622 72.9869 3.88379 78.3098L43.7842 54.7923C44.0409 49.8461 44.081 44.6431 43.9952 38.9976ZM43.3161 61.1511 4.71462 83.9065C5.34802 88.1848 6.04456 93.0909 6.79795 98.3426L41.4378 77.93C42.2857 71.6654 42.8965 66.1998 43.3161 61.1511ZM40.5017 84.5574 7.59982 103.945C7.7341 104.904 7.84258 105.595 7.97965 106.588 8.23915 108.483 8.1251 110.458 7.65144 112.285L20.0496 112.285 37.9475 101.733C38.9321 95.2656 39.7769 89.5692 40.5017 84.5574Z" fill="#FFEFAB" fill-rule="evenodd" transform="matrix(-0.7478 -0.663924 -0.663924 0.7478 1299.81 725.373)"/><path d="M0.245549 0.0373203 59.1648 0.0373203 59.1648 13.6285 0.245549 13.6285Z" stroke="#806600" stroke-width="3.4375" stroke-miterlimit="8" fill="#FEE46E" fill-rule="evenodd" transform="matrix(-0.7478 -0.663924 -0.663924 0.7478 1239.27 804.953)"/><path d="M1483.98 537.712C1483.98 525.72 1490.89 515.995 1499.41 515.995L1517.56 515.995C1526.08 515.995 1532.98 525.72 1532.98 537.712L1532.98 563.285C1532.98 575.276 1526.08 584.995 1517.56 584.995L1499.41 584.995C1490.89 584.995 1483.98 575.276 1483.98 563.285Z" stroke="#715D0F" stroke-width="1.98888" stroke-miterlimit="8" fill="#FEE46E" fill-rule="evenodd"/><path d="M1483.98 537.712C1483.98 525.72 1490.89 515.995 1499.41 515.995L1517.56 515.995C1526.08 515.995 1532.98 525.72 1532.98 537.712L1532.98 563.285C1532.98 575.276 1526.08 584.995 1517.56 584.995L1499.41 584.995C1490.89 584.995 1483.98 575.276 1483.98 563.285Z" stroke="#920000" stroke-width="1.98888" stroke-miterlimit="8" fill="#CD0707" fill-rule="evenodd"/><path d="M1494.99 541.982 1494.99 568.888C1494.99 568.888 1497.93 565.842 1501.46 565.842 1505 565.842 1508.99 574.983 1508.99 574.983 1508.99 574.983 1512.97 565.842 1516.51 565.842 1520.05 565.842 1522.99 568.888 1522.99 568.888L1522.99 541.982" stroke="#715D0F" stroke-width="1.97661" stroke-miterlimit="8" fill="#E4C900" fill-rule="evenodd"/><path d="M1268.89 491.708 1268.89 531.709 1324.89 531.709 1324.89 491.708ZM1275.78 499.276 1295.6 499.276 1295.6 524.141 1275.78 524.141Z" stroke="#A36800" stroke-width="1.97372" stroke-linecap="square" stroke-miterlimit="8" fill="#FEE46E" fill-rule="evenodd"/><path d="M1269.03 318.012 1269.03 358.012 1325.03 358.012 1325.03 318.012ZM1275.92 325.579 1295.73 325.58 1295.73 350.445 1275.92 350.444Z" stroke="#A36800" stroke-width="1.97661" stroke-linecap="square" stroke-miterlimit="8" fill="#FEE46E" fill-rule="evenodd"/><path d="M1303.99 257 1303.99 578 1465.99 578 1508.99 547.11 1356 257Z" stroke="#715D0F" stroke-width="1.98888" stroke-miterlimit="8" fill="#FEE46E" fill-rule="evenodd"/><path d="M1303.99 257 1303.99 578 1465.99 578 1508.99 547.11 1356 257Z" stroke="#920000" stroke-width="1.98888" stroke-miterlimit="8" fill="#CD0707" fill-rule="evenodd"/><path d="M1314.62 279.098 1312.99 559.01C1312.99 559.01 1368.86 561.295 1384.59 561.295 1400.31 561.295 1436.11 559.01 1449.12 559.01 1460.31 559.01 1467.77 559.822 1473.53 562.815 1480.64 566.509 1480.31 567 1480.31 567L1508.99 546.484 1508.99 272.253C1508.99 272.253 1489.26 260.083 1453.46 260.083 1417.67 260.083 1399.77 266.168 1388.38 266.168 1380.38 266.168 1364.63 259.534 1350.54 251Z" stroke="#715D0F" stroke-width="1.98888" stroke-miterlimit="8" fill="#FFFFFF" fill-rule="evenodd"/><path d="M1314.62 279.098 1312.99 559.01C1312.99 559.01 1368.86 561.295 1384.59 561.295 1400.31 561.295 1436.11 559.01 1449.12 559.01 1460.31 559.01 1467.77 559.822 1473.53 562.815 1480.64 566.509 1480.31 567 1480.31 567L1508.99 546.484 1508.99 272.253C1508.99 272.253 1489.26 260.083 1453.46 260.083 1417.67 260.083 1399.77 266.168 1388.38 266.168 1380.38 266.168 1364.63 259.534 1350.54 251Z" stroke="#715D0F" stroke-width="1.98888" stroke-miterlimit="8" fill="#FFFFFF" fill-rule="evenodd"/><path d="M1322.02 273.022 1321.99 550.559C1321.99 550.559 1368.15 553.506 1383.89 553.506 1399.64 553.506 1437.65 550.805 1450.68 550.805 1461.88 550.805 1470.71 551.702 1476.48 554.707 1483.59 558.409 1487.66 562 1487.66 562L1508.99 547.15 1508.99 272.301C1508.99 272.301 1489.24 260.104 1453.4 260.104 1417.56 260.104 1399.64 266.202 1388.23 266.202 1380.22 266.202 1364.46 259.553 1350.35 251Z" stroke="#715D0F" stroke-width="1.98888" stroke-miterlimit="8" fill="#E4C900" fill-rule="evenodd"/><path d="M1322.02 273.022 1321.99 550.559C1321.99 550.559 1368.15 553.506 1383.89 553.506 1399.64 553.506 1437.65 550.805 1450.68 550.805 1461.88 550.805 1470.71 551.702 1476.48 554.707 1483.59 558.409 1487.66 562 1487.66 562L1508.99 547.15 1508.99 272.301C1508.99 272.301 1489.24 260.104 1453.4 260.104 1417.56 260.104 1399.64 266.202 1388.23 266.202 1380.22 266.202 1364.46 259.553 1350.35 251Z" stroke="#715D0F" stroke-width="1.98888" stroke-miterlimit="8" fill="none" fill-rule="evenodd"/><path d="M1331.99 266.168 1332.2 541.856C1332.2 541.856 1368.33 545.041 1384.05 545.041 1399.78 545.041 1437.74 542.049 1450.76 542.049 1467.9 542.049 1481.31 546.386 1486.01 549.232 1492.96 553.434 1495.36 557 1495.36 557L1508.99 546.479 1508.99 272.253C1508.99 272.253 1489.26 260.083 1453.47 260.083 1417.68 260.083 1399.78 266.168 1388.39 266.168 1380.39 266.168 1364.64 259.534 1350.56 251Z" stroke="#715D0F" stroke-width="1.98888" stroke-miterlimit="8" fill="#FFFFFF" fill-rule="evenodd"/><path d="M1331.99 266.168 1332.2 541.856C1332.2 541.856 1368.33 545.041 1384.05 545.041 1399.78 545.041 1437.74 542.049 1450.76 542.049 1467.9 542.049 1481.31 546.386 1486.01 549.232 1492.96 553.434 1495.36 557 1495.36 557L1508.99 546.479 1508.99 272.253C1508.99 272.253 1489.26 260.083 1453.47 260.083 1417.68 260.083 1399.78 266.168 1388.39 266.168 1380.39 266.168 1364.64 259.534 1350.56 251Z" stroke="#715D0F" stroke-width="1.98888" stroke-miterlimit="8" fill="#FFFFFF" fill-rule="evenodd"/><path d="M1340.99 260.094 1340.99 531.197C1340.99 531.197 1368.14 536.529 1383.89 536.529 1399.64 536.529 1437.65 532.719 1450.68 532.719 1467.84 532.719 1481.27 535.972 1485.98 538.817 1492.94 543.03 1503.35 551.001 1503.35 551.001L1508.99 546.834 1508.99 272.278C1508.99 272.278 1489.23 260.094 1453.39 260.094 1417.56 260.094 1399.63 266.186 1388.23 266.186 1380.22 266.186 1364.45 259.544 1350.35 251Z" stroke="#715D0F" stroke-width="1.98888" stroke-miterlimit="8" fill="#E4C900" fill-rule="evenodd"/><path d="M1340.99 260.094 1340.99 531.197C1340.99 531.197 1368.14 536.529 1383.89 536.529 1399.64 536.529 1437.65 532.719 1450.68 532.719 1467.84 532.719 1481.27 535.972 1485.98 538.817 1492.94 543.03 1503.35 551.001 1503.35 551.001L1508.99 546.834 1508.99 272.278C1508.99 272.278 1489.23 260.094 1453.39 260.094 1417.56 260.094 1399.63 266.186 1388.23 266.186 1380.22 266.186 1364.45 259.544 1350.35 251Z" stroke="#715D0F" stroke-width="1.98888" stroke-miterlimit="8" fill="none" fill-rule="evenodd"/><path d="M1351 252.004 1351 523.009C1351 523.009 1378.02 528.337 1393.69 528.337 1409.37 528.337 1447.19 524.536 1460.16 524.536 1473.13 524.536 1490.42 529.865 1494.75 533.674 1499.07 537.482 1509 544.005 1509 544.005L1509 261.867C1509 261.867 1498.53 252.004 1462.87 252.004 1427.2 252.004 1409.37 258.094 1398.02 258.094 1386.67 258.094 1351 252.004 1351 252.004Z" stroke="#715D0F" stroke-width="1.97661" stroke-miterlimit="8" fill="none" fill-rule="evenodd"/><path d="M1658.95 498.989 1748.95 498.989 1748.95 524.988 1658.95 524.988Z" stroke="#A36800" stroke-width="1.97661" stroke-linecap="square" stroke-miterlimit="8" fill="#FEE46E" fill-rule="evenodd"/><path d="M1658.95 326.012 1748.95 326.012 1748.95 351.012 1658.95 351.012Z" stroke="#A36800" stroke-width="1.97661" stroke-linecap="square" stroke-miterlimit="8" fill="#FEE46E" fill-rule="evenodd"/><path d="M1713.98 257 1713.98 578 1551.88 578 1511.98 549.641 1661.93 257Z" stroke="#715D0F" stroke-width="1.98888" stroke-miterlimit="8" fill="#FEE46E" fill-rule="evenodd"/><path d="M1713.98 257 1713.98 578 1551.88 578 1511.98 549.641 1661.93 257Z" stroke="#920000" stroke-width="1.98888" stroke-miterlimit="8" fill="#CD0707" fill-rule="evenodd"/><path d="M1703.35 279.098 1704.98 559.01C1704.98 559.01 1649.11 561.295 1633.38 561.295 1617.65 561.295 1581.86 559.01 1568.85 559.01 1557.66 559.01 1550.19 559.822 1544.44 562.815 1537.33 566.509 1537.66 567 1537.66 567L1508.98 546.484 1508.98 272.253C1508.98 272.253 1528.71 260.083 1564.51 260.083 1600.3 260.083 1618.2 266.168 1629.59 266.168 1637.59 266.168 1653.33 259.534 1667.42 251Z" stroke="#715D0F" stroke-width="1.98888" stroke-miterlimit="8" fill="#FFFFFF" fill-rule="evenodd"/><path d="M1703.35 279.098 1704.98 559.01C1704.98 559.01 1649.11 561.295 1633.38 561.295 1617.65 561.295 1581.86 559.01 1568.85 559.01 1557.66 559.01 1550.19 559.822 1544.44 562.815 1537.33 566.509 1537.66 567 1537.66 567L1508.98 546.484 1508.98 272.253C1508.98 272.253 1528.71 260.083 1564.51 260.083 1600.3 260.083 1618.2 266.168 1629.59 266.168 1637.59 266.168 1653.33 259.534 1667.42 251Z" stroke="#715D0F" stroke-width="1.98888" stroke-miterlimit="8" fill="#FFFFFF" fill-rule="evenodd"/><path d="M1695.95 273.022 1695.98 550.559C1695.98 550.559 1649.82 553.506 1634.08 553.506 1618.33 553.506 1580.32 550.805 1567.29 550.805 1556.09 550.805 1547.26 551.702 1541.49 554.707 1534.37 558.409 1530.31 562 1530.31 562L1508.98 547.15 1508.98 272.301C1508.98 272.301 1528.73 260.104 1564.57 260.104 1600.41 260.104 1618.33 266.202 1629.73 266.202 1637.74 266.202 1653.5 259.553 1667.6 251Z" stroke="#715D0F" stroke-width="1.98888" stroke-miterlimit="8" fill="#E4C900" fill-rule="evenodd"/><path d="M1695.95 273.022 1695.98 550.559C1695.98 550.559 1649.82 553.506 1634.08 553.506 1618.33 553.506 1580.32 550.805 1567.29 550.805 1556.09 550.805 1547.26 551.702 1541.49 554.707 1534.37 558.409 1530.31 562 1530.31 562L1508.98 547.15 1508.98 272.301C1508.98 272.301 1528.73 260.104 1564.57 260.104 1600.41 260.104 1618.33 266.202 1629.73 266.202 1637.74 266.202 1653.5 259.553 1667.6 251Z" stroke="#715D0F" stroke-width="1.98888" stroke-miterlimit="8" fill="#E4C900" fill-rule="evenodd"/><path d="M1685.98 266.168 1685.77 541.856C1685.77 541.856 1649.64 545.041 1633.92 545.041 1618.19 545.041 1580.23 542.049 1567.21 542.049 1550.07 542.049 1536.66 546.386 1531.96 549.232 1525 553.434 1522.61 557 1522.61 557L1508.98 546.479 1508.98 272.253C1508.98 272.253 1528.7 260.083 1564.5 260.083 1600.29 260.083 1618.19 266.168 1629.57 266.168 1637.58 266.168 1653.32 259.534 1667.4 251Z" stroke="#715D0F" stroke-width="1.98888" stroke-miterlimit="8" fill="#FFFFFF" fill-rule="evenodd"/><path d="M1685.98 266.168 1685.77 541.856C1685.77 541.856 1649.64 545.041 1633.92 545.041 1618.19 545.041 1580.23 542.049 1567.21 542.049 1550.07 542.049 1536.66 546.386 1531.96 549.232 1525 553.434 1522.61 557 1522.61 557L1508.98 546.479 1508.98 272.253C1508.98 272.253 1528.7 260.083 1564.5 260.083 1600.29 260.083 1618.19 266.168 1629.57 266.168 1637.58 266.168 1653.32 259.534 1667.4 251Z" stroke="#715D0F" stroke-width="1.98888" stroke-miterlimit="8" fill="#FFFFFF" fill-rule="evenodd"/><path d="M1676.98 260.094 1676.98 531.197C1676.98 531.197 1649.83 536.529 1634.08 536.529 1618.34 536.529 1580.32 532.719 1567.29 532.719 1550.13 532.719 1536.7 535.972 1531.99 538.817 1525.02 543.03 1514.62 551.001 1514.62 551.001L1508.98 546.834 1508.98 272.278C1508.98 272.278 1528.73 260.094 1564.58 260.094 1600.41 260.094 1618.33 266.186 1629.73 266.186 1637.75 266.186 1653.51 259.544 1667.61 251Z" stroke="#715D0F" stroke-width="1.98888" stroke-miterlimit="8" fill="#E4C900" fill-rule="evenodd"/><path d="M1676.98 260.094 1676.98 531.197C1676.98 531.197 1649.83 536.529 1634.08 536.529 1618.34 536.529 1580.32 532.719 1567.29 532.719 1550.13 532.719 1536.7 535.972 1531.99 538.817 1525.02 543.03 1514.62 551.001 1514.62 551.001L1508.98 546.834 1508.98 272.278C1508.98 272.278 1528.73 260.094 1564.58 260.094 1600.41 260.094 1618.33 266.186 1629.73 266.186 1637.75 266.186 1653.51 259.544 1667.61 251Z" stroke="#715D0F" stroke-width="1.98888" stroke-miterlimit="8" fill="#E4C900" fill-rule="evenodd"/><path d="M1667.98 252 1667.98 523.006C1667.98 523.006 1640.79 528.335 1625.02 528.335 1609.25 528.335 1571.18 524.532 1558.13 524.532 1545.08 524.532 1527.68 529.861 1523.33 533.67 1518.98 537.478 1508.98 544.001 1508.98 544.001L1508.98 261.863C1508.98 261.863 1519.52 252 1555.41 252 1591.3 252 1609.25 258.09 1620.66 258.09 1632.09 258.09 1667.98 252 1667.98 252Z" stroke="#715D0F" stroke-width="1.98888" stroke-miterlimit="8" fill="#FFFFFF" fill-rule="evenodd"/><path d="M1667.98 252 1667.98 523.006C1667.98 523.006 1640.79 528.335 1625.02 528.335 1609.25 528.335 1571.18 524.532 1558.13 524.532 1545.08 524.532 1527.68 529.861 1523.33 533.67 1518.98 537.478 1508.98 544.001 1508.98 544.001L1508.98 261.863C1508.98 261.863 1519.52 252 1555.41 252 1591.3 252 1609.25 258.09 1620.66 258.09 1632.09 258.09 1667.98 252 1667.98 252Z" stroke="#715D0F" stroke-width="1.98888" stroke-miterlimit="8" fill="none" fill-rule="evenodd"/><path d="M1351 252.004 1351 523.009C1351 523.009 1378.02 528.337 1393.69 528.337 1409.37 528.337 1447.19 524.536 1460.16 524.536 1473.13 524.536 1490.42 529.865 1494.75 533.674 1499.07 537.482 1509 544.005 1509 544.005L1509 261.867C1509 261.867 1498.53 252.004 1462.87 252.004 1427.2 252.004 1409.37 258.094 1398.02 258.094 1386.67 258.094 1351 252.004 1351 252.004Z" stroke="#715D0F" stroke-width="1.97661" stroke-miterlimit="8" fill="#FFFFFF" fill-rule="evenodd"/></g></svg>