<?xml version="1.0" encoding="UTF-8" standalone="no"?>
<svg
   width="2052"
   height="2401"
   xml:space="preserve"
   overflow="hidden"
   version="1.1"
   id="svg213"
   sodipodi:docname="Shield_of_the_University_of_Cardiff.svg"
   inkscape:version="1.2.1 (9c6d41e410, 2022-07-14)"
   xmlns:inkscape="http://www.inkscape.org/namespaces/inkscape"
   xmlns:sodipodi="http://sodipodi.sourceforge.net/DTD/sodipodi-0.dtd"
   xmlns="http://www.w3.org/2000/svg"
   xmlns:svg="http://www.w3.org/2000/svg"><sodipodi:namedview
     id="namedview215"
     pagecolor="#505050"
     bordercolor="#eeeeee"
     borderopacity="1"
     inkscape:showpageshadow="0"
     inkscape:pageopacity="0"
     inkscape:pagecheckerboard="0"
     inkscape:deskcolor="#505050"
     showgrid="false"
     inkscape:zoom="0.23737112"
     inkscape:cx="1552.4214"
     inkscape:cy="1082.6928"
     inkscape:window-width="1920"
     inkscape:window-height="1009"
     inkscape:window-x="-8"
     inkscape:window-y="-8"
     inkscape:window-maximized="1"
     inkscape:current-layer="g211" /><defs
     id="defs185"><clipPath
       id="clip0"><rect
         x="1131"
         y="37"
         width="2052"
         height="2401"
         id="rect182" /></clipPath></defs><g
     clip-path="url(#clip0)"
     transform="translate(-1131 -37)"
     id="g211"><path
       d="m 3172.3,43.796 c 5.39,339.805 5.07,679.663 0,1019.454 -4.88,327.39 -21.17,582.87 -167.56,782.63 -176.34,240.64 -470.12,414.3 -848.02,584.92 -377.9,-170.62 -671.68,-344.28 -848.01,-584.92 -146.39,-199.76 -162.69,-455.24 -167.57,-782.63 -5.06,-339.791 -5.38,-679.644 0,-1019.454 z"
       stroke="#808080"
       stroke-width="12.0433"
       stroke-miterlimit="8"
       fill="#ffffff"
       fill-rule="evenodd"
       id="path187"
       sodipodi:insensitive="true" /><path
       d="m 3038.6623,201.69539 c 4.6734,294.82076 4.3942,589.68805 0,884.50461 -4.2393,284.047 -18.3837,505.7053 -145.477,679.0162 -153.0867,208.7857 -408.1211,359.4531 -736.1937,507.4838 -328.0622,-148.0307 -583.0966,-298.6981 -736.1833,-507.4838 -127.083,-173.3212 -141.2377,-394.9795 -145.4666,-679.0162 -4.4047,-294.81656 -4.6735,-589.67971 0,-884.50461 z"
       stroke="#9f0505"
       stroke-width="12.4522"
       stroke-miterlimit="8"
       fill="#cd0707"
       fill-rule="evenodd"
       id="path189" /><path
       d="m 2628.3575,324.40913 c 13.5586,-1.99087 26.2071,16.02315 24.5523,25.60519 v 548.74404 h -357.9327 c -31.1197,0.009 -31.2851,3.50187 -56.1064,-15.83906 -3.8163,33.86756 -44.3059,46.35576 -81.2068,46.35576 -36.901,0 -77.3906,-12.4882 -81.2069,-46.35576 -24.9143,19.30576 -37.9041,14.80795 -56.1064,15.83906 H 1662.4179 V 350.01432 c -1.6548,-9.58204 10.9937,-27.59606 24.5523,-25.60519 z"
       stroke="#806600"
       stroke-width="5.33288"
       stroke-miterlimit="8"
       fill="#fee46e"
       fill-rule="evenodd"
       id="path191" /><path
       d="m 2627.1992,323.22185 v 548.98708 h -338.7894 c -30.5301,-5.67062 -50.5733,-7.52187 -74.0604,-26.79867 33.6018,72.70558 -145.4732,76.44428 -113.3711,0 -23.4871,19.2768 -43.5302,21.12805 -74.0604,26.79867 H 1688.1286 V 323.22185 h 469.5353 z"
       stroke="#806600"
       stroke-width="5.33288"
       stroke-miterlimit="8"
       fill="#fee46e"
       fill-rule="evenodd"
       id="path193" /><path
       d="m 2592.0357,837.23166 -385.7429,-12.73123 -48.6289,-20.01731 -48.629,20.01731 -385.7429,12.73123 58.785,-150.99594 736.5912,14.55146 z"
       stroke="#806600"
       stroke-width="5.33288"
       stroke-miterlimit="8"
       fill="#fee46e"
       fill-rule="evenodd"
       id="path195" /><path
       d="m 2267.1566,303.82425 c 72.294,-0.69044 96.9384,29.94187 171.52,37.07726 26.1357,2.50043 53.3869,-35.18485 65.5256,-49.36253 2.8729,-3.36069 11.4341,-4.51745 11.4341,-4.51745 26.455,8.68823 38.1328,13.28586 76.7507,35.40904 V 834.6761 c 0,0 -103.5735,8.03795 -135.9012,4.94564 -74.5806,-7.13198 -117.0352,-37.76967 -189.3292,-37.08088 -33.1984,0.32474 -47.573,6.72449 -63.9261,12.98461 -16.1421,-35.42716 -45.9814,-49.1833 -46.2492,-49.68179 -0.2762,0.49849 -30.1154,14.25463 -46.2586,49.68179 -16.352,-6.26012 -30.7266,-12.65987 -63.925,-12.98461 -72.294,-0.68879 -114.7497,29.9489 -189.3303,37.08088 -32.3276,3.09231 -135.8922,-4.94564 -135.8922,-4.94564 V 322.43057 c 38.6095,-22.1238 50.2868,-26.72081 76.7421,-35.40904 0,0 8.5613,1.15676 11.4437,4.51745 12.1293,14.17768 39.3882,51.86296 65.525,49.36253 74.5723,-7.13539 99.226,-37.7677 171.5117,-37.07726 95.1047,0.90898 110.1836,39.54904 110.1836,39.54904 0,0 15.0706,-38.64006 110.1753,-39.54904 z"
       stroke="#806600"
       stroke-width="5.33288"
       stroke-miterlimit="8"
       fill="#fee46e"
       fill-rule="evenodd"
       id="path197" /><path
       d="m 1721.2236,835.16219 c 17.2197,-33.27496 78.4144,-84.04062 98.7885,-93.08072 m 774.0921,93.08072 c -17.2198,-33.27496 -78.4145,-84.04062 -98.799,-93.08072"
       stroke="#806600"
       stroke-width="5.33288"
       stroke-miterlimit="8"
       fill="#fee46e"
       fill-rule="evenodd"
       id="path199" /><path
       d="m 2047.985,718.07208 c -72.3953,-0.68879 -97.0821,29.91995 -171.7631,37.05606 -32.3814,3.09024 -73.2951,-4.94564 -73.2951,-4.94564 V 287.29826 c 0,0 40.9137,6.78448 73.2951,3.69423 74.681,-7.13197 99.3678,-37.74484 171.7631,-37.05399 95.2412,0.90805 109.6789,39.52371 109.6789,39.52371 0,0 14.448,-38.61566 109.6789,-39.52371 72.4056,-0.69085 97.0924,29.92202 171.763,37.05399 32.3814,3.09025 73.2951,-3.69423 73.2951,-3.69423 V 750.1825 c 0,0 -40.9137,8.02761 -73.2951,4.93633 -74.6706,-7.1268 -99.3574,-37.74381 -171.763,-37.04675 -95.2309,0.9008 -109.6789,39.51956 -109.6789,39.51956 0,0 -14.4377,-38.61876 -109.6789,-39.51956 z"
       stroke="#806600"
       stroke-width="5.33288"
       stroke-miterlimit="8"
       fill="#fee46e"
       fill-rule="evenodd"
       id="path201" /><path
       d="M 2157.6845,753.4558 V 296.3301"
       stroke="#806600"
       stroke-width="5.33288"
       stroke-miterlimit="8"
       fill="none"
       fill-rule="evenodd"
       id="path203" /><path
       d="m 2159.0807,1604.8525 434.5891,435.0131 -2.8751,2.0581 c -30.9645,20.5706 -63.2942,40.6758 -96.9374,60.4087 l -3.5577,1.9754 -331.2189,-331.5395 -332.522,332.8322 -5.8847,-3.2681 c -33.6328,-19.7329 -65.9624,-39.8381 -96.9269,-60.4087 l -0.7654,-0.5481 z m -3.4129,-312.7581 611.6577,612.2472 -7.6119,7.5601 c -25.266,22.908 -52.0212,45.123 -80.1933,66.7588 l -3.3199,2.3684 -520.5326,-521.0187 -519.1881,519.6949 -1.4583,-1.0446 c -28.1721,-21.6358 -54.9273,-43.8508 -80.1933,-66.7588 l -9.2149,-9.1632 z m 0.393,-312.75799 755.7243,756.44819 -18.6469,29.5063 -53.9345,65.7556 -683.1429,-683.7944 -681.8087,682.4603 -52.8485,-64.4215 -19.5778,-30.9852 z"
       stroke="#806600"
       stroke-width="10.6654"
       stroke-miterlimit="8"
       fill="#fee46e"
       fill-rule="evenodd"
       id="path205" /><path
       d="m 1938.1716,374.4798 c -59.4365,13.95575 -104.032,66.74124 -104.032,130.69318 0,74.57958 60.2329,135.10103 134.4484,135.10103 74.2259,0 134.4484,-60.52145 134.4484,-135.10103 0,-63.92299 -44.5334,-116.54197 -103.9286,-130.49254 0.021,0.3868 0.1965,0.71257 0.1965,1.10144 0,0.17685 -0.093,0.32371 -0.093,0.5016 26.2692,12.07553 44.5852,38.4295 44.5852,69.3547 0,42.34712 -34.1603,76.77213 -76.3047,76.77213 -42.1444,0 -76.3977,-34.42501 -76.3977,-76.77213 0,-31.74844 19.464,-58.54298 46.8811,-70.15622 0,-0.35474 0.1758,-0.65053 0.1965,-1.00216 z"
       stroke="#920000"
       stroke-width="2.08828"
       stroke-miterlimit="8"
       fill="#cd0707"
       fill-rule="evenodd"
       id="path207" /><path
       d="m 2380.7035,365.11702 c 11.8831,11.8749 -16.9405,54.99458 0,62.00451 16.9508,7.01511 16.3406,-33.90789 33.9327,-33.90789 17.6024,0 40.7172,21.96473 40.7172,40.68926 0,18.72867 -45.9193,21.51279 -38.7729,38.75425 7.1465,17.24249 46.6847,-10.50146 57.1923,0 10.518,10.50663 0,21.31628 0,31.9739 0,10.65866 10.518,21.46832 0,31.96977 -10.5076,10.50663 -50.0458,-17.24146 -57.1923,0 -7.1464,17.2425 38.7729,20.03075 38.7729,38.75528 0,18.7235 -23.1148,40.69237 -40.7172,40.69237 -17.5921,0 -16.9819,-40.923 -33.9327,-33.91203 -16.9405,7.0151 11.8831,50.13168 0,62.00555 -11.8729,11.878 -25.8452,0 -38.7729,0 -12.9277,0 -26.9,11.878 -38.7832,0 -11.8832,-11.87387 16.9509,-54.99045 0,-62.00555 -16.9405,-7.01097 -16.3303,33.91203 -33.9224,33.91203 -17.6024,0 -40.7172,-21.96887 -40.7172,-40.69237 0,-18.72453 45.9194,-21.51278 38.7729,-38.75528 -7.1464,-17.24146 -46.6846,10.50663 -57.1923,0 -10.518,-10.50145 0,-21.31111 0,-31.96977 0,-10.65762 -10.518,-21.46727 0,-31.9739 10.5077,-10.50146 50.0459,17.24249 57.1923,0 7.1465,-17.24146 -38.7729,-20.02558 -38.7729,-38.75425 0,-18.72453 23.1148,-40.68926 40.7172,-40.68926 17.5921,0 16.9819,40.923 33.9224,33.90789 16.9509,-7.00993 -11.8832,-50.12961 0,-62.00451 11.8832,-11.87387 25.8555,0 38.7832,0 12.9277,0 26.9,-11.87387 38.7729,0 z"
       stroke="#cd0707"
       stroke-width="18.1417"
       stroke-miterlimit="8"
       fill="none"
       fill-rule="evenodd"
       id="path209" /></g></svg>
